<?xml version="1.0" encoding="UTF-8"?>
<svg width="389px" height="30px" viewBox="0 0 389 30" version="1.1" xmlns="http://www.w3.org/2000/svg" xmlns:xlink="http://www.w3.org/1999/xlink">
    <!-- Generator: Sketch 48.2 (47327) - http://www.bohemiancoding.com/sketch -->
    <title>底部装饰</title>
    <desc>Created with Sketch.</desc>
    <defs></defs>
    <g id="分享出去页面" stroke="none" stroke-width="1" fill="none" fill-rule="evenodd" transform="translate(-181.000000, -1678.000000)">
        <g id="Group" transform="translate(30.000000, 148.000000)" fill="#EFE0BC" fill-rule="nonzero">
            <g id="底部装饰" transform="translate(151.000000, 1530.000000)">
                <path d="M189.65496,23.6184194 C195.46438,20.2452097 195.89147,17.7002613 195.65017,11.8620774 C195.41352,6.13660645 191.46929,2.85397742 186.18402,0.869129032 C180.89875,-1.11571935 174.74578,0.487441935 171.98482,3.77007097 C169.15993,7.12866774 169.38162,10.6406323 172.14258,13.0835129 C174.00651,14.7326903 176.16569,13.0835129 176.08682,11.5567065 C175.97815,9.45341613 171.51151,9.95357419 174.82467,6.51829355 C177.06792,4.19232581 181.6876,4.45712903 184.13302,7.12900645 C186.57844,9.80088387 187.90577,14.6198032 184.60634,17.2058516 C175.06132,24.6871645 163.38641,13.1598581 154.31469,13.2361839 C145.24297,13.3125097 140.38404,22.3199226 128.75611,21.9389419 C107.66192,21.2478 94.04694,3.00666774 69.75051,2.85397742 C58.23254,2.78111613 40.8694,18.3671323 32.20149,19.9541129 C11.77042,23.6947645 0.56881,10.1826 0.01662,10.4879613 C-0.53557,10.7933226 12.71703,25.2978968 32.83256,22.3969742 C42.55542,20.9948129 60.43731,6.48127742 70.69713,6.82366452 C93.57364,7.58704839 105.12826,24.1357645 128.12505,26.213971 C139.99099,27.2862871 147.05733,19.5724065 154.94576,19.3433903 C162.83419,19.1143742 176.24459,31.4050742 189.65496,23.6184194 Z" id="Shape"></path>
                <path d="M198.78616,23.6184194 C192.97674,20.2452097 192.54963,17.7002613 192.79095,11.8620774 C193.0276,6.13660645 196.97183,2.85397742 202.25708,0.869129032 C207.54233,-1.11571935 213.69534,0.487441935 216.45628,3.77007097 C219.28118,7.12866774 219.05948,10.6406323 216.29852,13.0835129 C214.43461,14.7326903 212.27542,13.0835129 212.35429,11.5567065 C212.46297,9.45341613 216.92959,9.95357419 213.61645,6.51829355 C211.3732,4.19232581 206.75352,4.45712903 204.30808,7.12900645 C201.86264,9.80088387 200.53533,14.6198032 203.83478,17.2058516 C213.3798,24.6871645 225.05471,13.1598581 234.12641,13.2361839 C243.19811,13.3125097 248.05706,22.3199226 259.685,21.9389419 C280.7792,21.2478 294.39417,3.00666774 318.69059,2.85397742 C330.20858,2.78111613 347.57169,18.3671323 356.23963,19.9541129 C376.67069,23.6947645 387.8723,10.1826 388.4245,10.4879613 C388.9767,10.7933226 375.72408,25.2978968 355.60856,22.3969742 C345.88569,20.9948129 328.0038,6.48127742 317.74398,6.82366452 C294.86747,7.58704839 283.31286,24.1357645 260.31607,26.213971 C248.45013,27.2862871 241.38379,19.5724065 233.49534,19.3433903 C225.60689,19.1143742 212.19653,31.4050742 198.78616,23.6184194 Z" id="Shape"></path>
                <path d="M54.58005,12.8853677 C50.50009,15.2543613 50.20013,17.0416645 50.3696,21.1418516 C50.5358,25.1628677 53.30584,27.4682516 57.01768,28.8621968 C60.72952,30.2561419 65.05078,29.1302613 66.9898,26.8248774 C68.97372,24.4661323 68.81802,21.9996581 66.879,20.2840258 C65.56997,19.1258032 64.05356,20.2840258 64.10896,21.3563032 C64.18528,22.8334452 67.3222,22.4821742 64.99537,24.8947935 C63.41993,26.5283226 60.17552,26.3423613 58.45809,24.4658903 C56.74066,22.5894194 55.80849,19.2051 58.12568,17.3889 C64.82916,12.1347774 78.95633,28.004371 96.01973,28.1116065 C104.10881,28.1627806 116.30296,17.2167097 122.39044,16.102171 C136.73922,13.4751 144.60609,22.9647097 144.99391,22.7502387 C145.38173,22.5357677 136.07439,12.349229 121.94723,14.3865484 C115.11886,15.3712742 102.56039,25.5641516 95.35492,25.3236968 C79.28873,24.7875581 63.99815,7.41678387 54.58004,12.8853677 L54.58005,12.8853677 Z" id="Shape"></path>
                <path d="M331.4238,12.8853677 C335.50377,15.2543613 335.80373,17.0416645 335.63426,21.1418516 C335.46804,25.1628677 332.69801,27.4682516 328.98618,28.8621968 C325.27435,30.2561419 320.95309,29.1302613 319.01406,26.8248774 C317.03015,24.4661323 317.18583,21.9996581 319.12487,20.2840258 C320.43389,19.1258032 321.9503,20.2840258 321.89489,21.3563032 C321.81857,22.8334452 318.68165,22.4821742 321.00847,24.8947935 C322.58391,26.5283226 325.82834,26.3423613 327.54576,24.4658903 C329.26318,22.5894194 330.19536,19.2051 327.87817,17.3889 C321.17469,12.1347774 307.04751,28.004371 289.98411,28.1116065 C281.89504,28.1627806 269.70089,17.2167097 263.6134,16.102171 C249.26464,13.4751 241.39774,22.9647097 241.00995,22.7502387 C240.62216,22.5357677 249.92944,12.349229 264.05662,14.3865484 C270.88498,15.3712742 283.44345,25.5641516 290.64893,25.3236968 C306.71512,24.7875581 322.0057,7.41678387 331.4238,12.8853677 Z" id="Shape"></path>
            </g>
        </g>
    </g>
</svg>