<?xml version="1.0" encoding="UTF-8"?>
<svg width="170px" height="41px" viewBox="0 0 170 41" version="1.1" xmlns="http://www.w3.org/2000/svg" xmlns:xlink="http://www.w3.org/1999/xlink">
    <!-- Generator: Sketch 48.2 (47327) - http://www.bohemiancoding.com/sketch -->
    <title>活动说明</title>
    <desc>Created with Sketch.</desc>
    <defs></defs>
    <g id="我的-邀请好友" stroke="none" stroke-width="1" fill="none" fill-rule="evenodd" transform="translate(-290.000000, -1019.000000)">
        <g id="Group" transform="translate(20.000000, 148.000000)">
            <g id="活动说明" transform="translate(270.000000, 870.000000)">
                <rect id="Rectangle-2" fill="#FEF3D9" x="0" y="18" width="170" height="24" rx="9"></rect>
                <path d="M30.728,10.848 L39.592,10.848 L39.592,6.528 C37.288,6.72 34.856,6.848 32.264,6.848 L31.304,4.128 C38.248,4.128 44.072,3.36 48.808,1.824 L50.312,4.384 C48.104,5.152 45.576,5.76 42.696,6.176 L42.696,10.848 L51.624,10.848 L51.624,13.76 L42.696,13.76 L42.696,17.92 L49.736,17.92 L49.736,31.264 L46.728,31.264 L46.728,29.728 L35.816,29.728 L35.816,31.296 L32.776,31.296 L32.776,17.92 L39.592,17.92 L39.592,13.76 L30.728,13.76 L30.728,10.848 Z M35.816,26.88 L46.728,26.88 L46.728,20.768 L35.816,20.768 L35.816,26.88 Z M25.32,2.08 C27.432,3.456 29.256,4.864 30.76,6.272 L28.68,8.32 C27.4,7.008 25.576,5.568 23.24,4.032 L25.32,2.08 Z M24.584,9.696 C26.76,11.264 28.616,12.832 30.088,14.4 L27.976,16.512 C26.664,15.04 24.808,13.472 22.44,11.776 L24.584,9.696 Z M27.688,18.304 L30.472,19.392 C29.128,23.488 27.624,27.328 26.024,30.912 L22.984,29.568 C24.808,25.888 26.376,22.144 27.688,18.304 Z M55.72,3.744 L67.624,3.744 L67.624,6.656 L55.72,6.656 L55.72,3.744 Z M54.536,12.384 L68.776,12.384 L68.776,15.328 L61.576,15.328 C60.424,19.712 59.432,22.912 58.6,24.96 C60.712,24.512 62.856,23.872 65,23.072 C64.264,21.504 63.528,20.032 62.792,18.656 L65.352,17.408 C66.824,20.096 68.232,23.072 69.576,26.304 L66.952,27.648 L66.12,25.6 C62.76,26.752 59.144,27.68 55.24,28.384 L54.504,25.504 C54.824,25.44 55.016,25.344 55.144,25.248 C56.008,24 57.16,20.704 58.632,15.328 L54.536,15.328 L54.536,12.384 Z M73.128,1.856 L76.136,1.856 L76.136,8.064 L83.048,8.064 C83.048,18.496 82.888,24.928 82.6,27.36 C82.248,29.792 80.616,31.008 77.704,31.008 C77.192,31.008 76.296,30.944 75.016,30.88 L74.312,28.192 C75.464,28.288 76.456,28.352 77.288,28.352 C78.696,28.352 79.496,27.584 79.752,26.048 C79.944,24.544 80.04,19.52 80.104,11.008 L76.136,11.008 L76.136,11.296 C76.04,20.512 73.832,27.232 69.48,31.488 L67.208,29.472 C71.08,25.696 73.064,19.648 73.128,11.296 L73.128,11.008 L69.064,11.008 L69.064,8.064 L73.128,8.064 L73.128,1.856 Z M97.448,8.384 L106.44,8.384 C107.72,6.24 108.808,3.936 109.768,1.472 L112.68,2.496 C111.752,4.672 110.696,6.656 109.544,8.384 L113.8,8.384 L113.8,19.04 L109.544,19.04 L109.544,27.072 C109.544,27.712 109.832,28.064 110.408,28.064 L112.008,28.064 C112.392,28.064 112.712,27.84 112.904,27.424 C113.16,26.976 113.32,25.664 113.384,23.456 L116.104,24.288 C115.88,27.424 115.496,29.312 114.952,29.92 C114.408,30.496 113.608,30.784 112.52,30.784 L109.576,30.784 C107.624,30.784 106.664,29.728 106.664,27.68 L106.664,19.04 L104.136,19.04 C103.688,24.672 101.256,28.768 96.808,31.328 L95.144,28.736 C98.888,26.816 100.968,23.584 101.384,19.04 L97.448,19.04 L97.448,8.384 Z M110.984,16.288 L110.984,11.136 L100.296,11.136 L100.296,16.288 L110.984,16.288 Z M101,1.6 C102.12,3.136 103.176,4.832 104.2,6.688 L101.64,7.968 C100.616,6.08 99.496,4.384 98.312,2.88 L101,1.6 Z M90.568,2.016 C92.616,3.584 94.344,5.152 95.784,6.72 L93.704,8.832 C92.456,7.36 90.696,5.76 88.424,4.096 L90.568,2.016 Z M86.216,11.296 L93.608,11.296 L93.608,24.768 C94.504,23.968 95.432,23.072 96.424,22.08 L97.224,25.28 C95.304,27.168 93.224,28.864 91.048,30.336 L89.896,27.616 C90.408,27.104 90.696,26.496 90.696,25.792 L90.696,14.208 L86.216,14.208 L86.216,11.296 Z M129.544,3.328 L129.544,26.048 L122.44,26.048 L122.44,28.448 L119.4,28.448 L119.4,3.328 L129.544,3.328 Z M122.44,23.072 L126.6,23.072 L126.6,15.936 L122.44,15.936 L122.44,23.072 Z M122.44,12.992 L126.6,12.992 L126.6,6.304 L122.44,6.304 L122.44,12.992 Z M135.592,13.248 L135.592,18.08 L143.112,18.08 L143.112,13.248 L135.592,13.248 Z M143.112,10.4 L143.112,5.536 L135.592,5.536 L135.592,10.4 L143.112,10.4 Z M135.4,20.928 C134.952,25.184 133.608,28.736 131.432,31.552 L129.032,29.312 C131.304,26.368 132.456,22.624 132.52,18.08 L132.52,2.624 L146.216,2.624 L146.216,27.712 C146.216,29.888 145.096,31.008 142.888,31.008 L138.792,31.008 L137.96,28.032 C139.368,28.096 140.68,28.16 141.896,28.16 C142.696,28.16 143.112,27.648 143.112,26.624 L143.112,20.928 L135.4,20.928 Z" fill="#997345"></path>
            </g>
        </g>
    </g>
</svg>