<?xml version="1.0" encoding="UTF-8"?>
<svg width="170px" height="41px" viewBox="0 0 170 41" version="1.1" xmlns="http://www.w3.org/2000/svg" xmlns:xlink="http://www.w3.org/1999/xlink">
    <!-- Generator: Sketch 48.2 (47327) - http://www.bohemiancoding.com/sketch -->
    <title>注册</title>
    <desc>Created with Sketch.</desc>
    <defs></defs>
    <g id="分享出去页面" stroke="none" stroke-width="1" fill="none" fill-rule="evenodd" transform="translate(-290.000000, -789.000000)">
        <g id="Group" transform="translate(30.000000, 148.000000)">
            <g id="注册" transform="translate(260.000000, 641.000000)">
                <rect id="Rectangle-2" fill="#FED883" opacity="0.3" x="0" y="17" width="170" height="24" rx="9"></rect>
                <path d="M57.448,1.08 C59.624,2.68 61.48,4.248 63.016,5.816 L60.84,7.992 C59.528,6.488 57.672,4.888 55.24,3.192 L57.448,1.08 Z M56.68,8.6 C58.76,10.168 60.52,11.768 61.96,13.368 L59.784,15.544 C58.504,14.072 56.744,12.44 54.504,10.68 L56.68,8.6 Z M60.104,17.592 L62.824,18.712 C61.416,22.712 59.816,26.488 58.056,30.04 L55.016,28.696 C56.936,25.08 58.632,21.368 60.104,17.592 Z M63.912,5.912 L72.104,5.912 C71.528,4.344 70.888,2.84 70.152,1.4 L72.968,0.6 C73.896,2.52 74.6,4.28 75.112,5.88 L75.016,5.912 L82.952,5.912 L82.952,8.888 L75.016,8.888 L75.016,15.736 L82.088,15.736 L82.088,18.648 L75.016,18.648 L75.016,26.232 L83.624,26.232 L83.624,29.208 L63.112,29.208 L63.112,26.232 L71.976,26.232 L71.976,18.648 L64.808,18.648 L64.808,15.736 L71.976,15.736 L71.976,8.888 L63.912,8.888 L63.912,5.912 Z M86.376,13.272 L89.96,13.272 L89.96,1.816 L99.656,1.816 L99.656,13.272 L102.632,13.272 L102.632,1.816 L112.36,1.816 L112.36,13.272 L115.624,13.272 L115.624,16.184 L112.36,16.184 L112.36,26.872 C112.36,28.92 111.24,29.944 109.032,29.944 L106.248,29.944 L105.448,27.064 C106.408,27.128 107.304,27.192 108.136,27.192 C108.968,27.192 109.384,26.712 109.384,25.784 L109.384,16.184 L105.544,16.184 L105.544,17.08 C105.48,22.52 104.488,26.936 102.568,30.328 L100.36,28.312 C101.832,25.432 102.568,21.752 102.632,17.272 L102.632,16.184 L99.656,16.184 L99.656,26.84 C99.656,28.888 98.696,29.944 96.776,29.944 L93.864,29.944 L93.096,27.064 C94.056,27.128 94.984,27.192 95.848,27.192 C96.456,27.192 96.776,26.712 96.776,25.816 L96.776,16.184 L92.936,16.184 L92.936,17.016 C92.872,22.52 91.752,26.968 89.544,30.36 L87.304,28.28 C89.032,25.4 89.896,21.72 89.96,17.24 L89.96,16.184 L86.376,16.184 L86.376,13.272 Z M109.384,13.272 L109.384,4.568 L105.544,4.568 L105.544,13.272 L109.384,13.272 Z M96.776,13.272 L96.776,4.568 L92.936,4.568 L92.936,13.272 L96.776,13.272 Z" fill="#997345"></path>
            </g>
        </g>
    </g>
</svg>