<?xml version="1.0" encoding="UTF-8"?>
<svg width="510px" height="130px" viewBox="0 0 510 130" version="1.1" xmlns="http://www.w3.org/2000/svg" xmlns:xlink="http://www.w3.org/1999/xlink">
    <!-- Generator: Sketch 48.2 (47327) - http://www.bohemiancoding.com/sketch -->
    <title>立即体验-默认</title>
    <desc>Created with Sketch.</desc>
    <defs>
        <linearGradient x1="57.0229388%" y1="100%" x2="47.1958112%" y2="0%" id="linearGradient-1">
            <stop stop-color="#FFD275" offset="0%"></stop>
            <stop stop-color="#FED883" offset="100%"></stop>
        </linearGradient>
        <rect id="path-2" x="21" y="10" width="470" height="90" rx="45"></rect>
        <filter x="-7.4%" y="-27.8%" width="114.9%" height="177.8%" filterUnits="objectBoundingBox" id="filter-3">
            <feOffset dx="0" dy="10" in="SourceAlpha" result="shadowOffsetOuter1"></feOffset>
            <feGaussianBlur stdDeviation="10" in="shadowOffsetOuter1" result="shadowBlurOuter1"></feGaussianBlur>
            <feComposite in="shadowBlurOuter1" in2="SourceAlpha" operator="out" result="shadowBlurOuter1"></feComposite>
            <feColorMatrix values="0 0 0 0 1   0 0 0 0 0.823529412   0 0 0 0 0.458823529  0 0 0 0.3 0" type="matrix" in="shadowBlurOuter1"></feColorMatrix>
        </filter>
    </defs>
    <g id="我的-邀请好友" stroke="none" stroke-width="1" fill="none" fill-rule="evenodd" transform="translate(-111.000000, -788.000000)">
        <g id="Group" transform="translate(20.000000, 148.000000)">
            <g id="立即体验-默认" transform="translate(90.000000, 640.000000)">
                <g id="Rectangle-11">
                    <use fill="black" fill-opacity="1" filter="url(#filter-3)" xlink:href="#path-2"></use>
                    <use fill="url(#linearGradient-1)" fill-rule="evenodd" xlink:href="#path-2"></use>
                </g>
                <path d="M194.656,46.008 L206.944,46.008 C206.432,44.28 205.888,42.712 205.312,41.304 L207.968,40.856 C208.48,42.36 208.96,44.088 209.44,46.008 L221.44,46.008 L221.44,48.248 L194.656,48.248 L194.656,46.008 Z M193.568,66.104 L209.44,66.104 C211.392,61.848 213.088,56.504 214.56,50.104 L216.992,50.744 C215.68,56.504 214.048,61.624 212.064,66.104 L222.528,66.104 L222.528,68.344 L193.568,68.344 L193.568,66.104 Z M201.536,50.232 C202.944,54.392 204.192,59.128 205.28,64.504 L202.816,65.112 C201.856,60.248 200.608,55.544 199.136,51.032 L201.536,50.232 Z M229.408,50.488 L229.408,54.904 L236.992,54.904 L236.992,50.488 L229.408,50.488 Z M236.992,48.408 L236.992,44.216 L229.408,44.216 L229.408,48.408 L236.992,48.408 Z M226.88,69.24 L226.08,67.032 C226.784,66.808 227.136,66.392 227.136,65.816 L227.136,42.136 L239.168,42.136 L239.168,57.048 L229.408,57.048 L229.408,66.264 C232.224,65.432 234.72,64.6 236.928,63.736 C236.288,62.616 235.616,61.496 234.912,60.408 L236.672,59.288 C238.688,62.392 240.224,65.112 241.28,67.416 L239.52,68.696 C239.072,67.704 238.56,66.68 237.984,65.656 C234.784,67 231.072,68.216 226.88,69.24 Z M250.496,65.784 L247.616,65.784 L247.008,63.544 L249.728,63.608 C250.624,63.608 251.072,63.16 251.072,62.296 L251.072,44.312 L245.248,44.312 L245.248,70.104 L242.944,70.104 L242.944,42.136 L253.376,42.136 L253.376,62.808 C253.376,64.792 252.416,65.784 250.496,65.784 Z M259.648,41.336 C261.632,43.032 263.264,44.728 264.576,46.424 L263.008,47.992 C261.792,46.392 260.16,44.664 258.112,42.808 L259.648,41.336 Z M278.688,69.624 C276.864,69.624 274.88,69.592 272.736,69.56 C270.56,69.528 268.8,69.336 267.456,68.984 C266.144,68.6 264.992,67.8 263.968,66.648 C263.52,66.104 263.072,65.848 262.656,65.848 C262.016,65.848 260.896,67.288 259.328,70.232 L257.696,68.728 C259.168,66.072 260.48,64.44 261.632,63.864 L261.632,54.04 L257.728,54.04 L257.728,51.896 L263.808,51.896 L263.808,63.928 C264.064,64.12 264.352,64.344 264.64,64.664 C265.472,65.592 266.368,66.264 267.264,66.68 C268.32,67.128 269.824,67.384 271.776,67.448 C273.568,67.48 275.744,67.512 278.368,67.512 C279.872,67.512 281.408,67.48 282.976,67.448 C284.512,67.416 285.728,67.384 286.56,67.32 L286.016,69.624 L278.688,69.624 Z M267.072,43.064 L270.144,43.064 C270.368,42.264 270.528,41.432 270.656,40.568 L272.96,40.888 C272.768,41.656 272.544,42.392 272.288,43.064 L276.096,43.064 L276.096,51.096 C277.6,48.408 278.624,44.952 279.2,40.664 L281.312,41.048 C281.056,42.68 280.736,44.184 280.352,45.592 L286.464,45.592 L286.464,47.736 L284.864,47.736 C284.736,51.32 284.256,54.488 283.392,57.208 C284.48,59.064 285.568,61.144 286.592,63.48 L285.088,64.984 C284.256,63 283.392,61.144 282.496,59.48 C281.344,62.04 279.776,64.12 277.856,65.784 L276.672,63.928 C278.688,62.264 280.192,60.024 281.216,57.24 C280.256,55.672 279.232,54.232 278.144,52.92 L279.328,51.576 C280.224,52.536 281.088,53.624 281.92,54.904 C282.432,52.76 282.752,50.36 282.816,47.736 L279.712,47.736 C278.976,49.752 278.08,51.48 277.024,52.92 L276.096,51.768 L276.096,51.928 L272.064,51.928 L272.864,53.88 L277.216,53.88 L277.216,55.832 L270.944,55.832 C270.816,56.536 270.72,57.208 270.624,57.784 L276.224,57.784 C276.224,61.4 276,63.608 275.552,64.376 C275.072,65.144 274.272,65.56 273.12,65.592 L271.296,65.592 L270.72,63.704 L272.576,63.704 C273.216,63.672 273.664,63.416 273.856,62.936 C274.016,62.456 274.112,61.336 274.144,59.608 L270.208,59.608 C270.048,60.152 269.888,60.632 269.728,61.08 C269.088,62.552 268.16,63.896 266.944,65.08 L265.632,63.384 C266.624,62.424 267.392,61.336 267.904,60.152 C268.352,59.032 268.672,57.592 268.896,55.832 L266.016,55.832 L266.016,53.88 L270.688,53.88 L269.888,51.928 L267.072,51.928 L267.072,43.064 Z M274.144,50.328 L274.144,48.28 L269.024,48.28 L269.024,50.328 L274.144,50.328 Z M269.024,46.68 L274.144,46.68 L274.144,44.664 L269.024,44.664 L269.024,46.68 Z M307.648,40.856 L309.856,40.856 L309.856,42.936 L317.792,42.936 L317.792,44.824 L309.856,44.824 L309.856,46.968 L316.64,46.968 L316.64,48.824 L309.856,48.824 L309.856,51 L318.592,51 L318.592,52.92 L299.008,52.92 L299.008,51 L307.648,51 L307.648,48.824 L301.184,48.824 L301.184,46.968 L307.648,46.968 L307.648,44.824 L299.904,44.824 L299.904,42.936 L307.648,42.936 L307.648,40.856 Z M303.648,60.984 L303.648,63.32 L313.984,63.32 L313.984,60.984 L303.648,60.984 Z M313.984,59.192 L313.984,56.824 L303.648,56.824 L303.648,59.192 L313.984,59.192 Z M303.648,65.112 L303.648,70.2 L301.44,70.2 L301.44,54.936 L316.192,54.936 L316.192,67.416 C316.192,69.144 315.264,70.008 313.472,70.008 L310.784,70.008 L310.24,67.96 L312.8,68.056 C313.568,68.056 313.984,67.672 313.984,66.936 L313.984,65.112 L303.648,65.112 Z M293.216,41.208 C295.36,42.808 297.152,44.44 298.624,46.072 L297.056,47.672 C295.712,46.136 293.888,44.504 291.584,42.776 L293.216,41.208 Z M289.344,50.648 L296.128,50.648 L296.128,64.696 C297.088,63.8 298.08,62.808 299.168,61.688 L299.776,64.12 C297.984,65.976 296.064,67.64 294.08,69.08 L293.184,67.032 C293.664,66.584 293.92,66.104 293.92,65.56 L293.92,52.856 L289.344,52.856 L289.344,50.648 Z" id="立即邀请" fill="#4A3519"></path>
            </g>
        </g>
    </g>
</svg>