<?xml version="1.0" encoding="UTF-8"?>
<svg width="630px" height="20px" viewBox="0 0 630 20" version="1.1" xmlns="http://www.w3.org/2000/svg" xmlns:xlink="http://www.w3.org/1999/xlink">
    <!-- Generator: Sketch 48.2 (47327) - http://www.bohemiancoding.com/sketch -->
    <title>分割线</title>
    <desc>Created with Sketch.</desc>
    <defs></defs>
    <g id="我的-邀请好友" stroke="none" stroke-width="1" fill="none" fill-rule="evenodd" transform="translate(-60.000000, -948.000000)">
        <g id="Group" transform="translate(20.000000, 148.000000)">
            <g id="分割线" transform="translate(40.000000, 800.000000)">
                <rect id="Rectangle-3" fill="#CB995C" opacity="0.3" x="0" y="10" width="280" height="1"></rect>
                <rect id="Rectangle-3" fill="#EFE0BC" x="350" y="10" width="280" height="1"></rect>
                <g id="花" transform="translate(315.000000, 10.000000) rotate(-270.000000) translate(-315.000000, -10.000000) translate(305.000000, -10.000000)" fill="#F0DEB1" fill-rule="nonzero">
                    <path d="M9.99985792,21.4171586 C10.4910213,20.2901679 11.1042144,18.7243116 11.1042144,18.2862168 C11.1042144,17.9731612 10.981657,17.65972 10.8586124,17.3153926 C10.6746342,16.8459296 10.6134976,16.2198183 10.6134976,15.4368179 L11.2268936,15.4368179 C11.3497352,17.6911846 12.6379481,19.2880237 13.8649433,19.2880237 C14.6012215,19.2880237 15.0308423,18.693377 15.0308423,17.9418893 C15.0308423,17.2216253 14.4785829,16.5642904 13.8956334,16.5642904 C13.4049165,16.5642904 13.1593957,17.0651697 13.0367977,17.6911846 C12.4537669,17.0651697 12.2086521,16.188402 12.2086521,15.4368179 C12.6686382,15.4368179 13.0675284,15.624738 13.5275145,15.9063772 C13.5275145,15.0923459 12.8527383,14.685282 12.2086521,14.685282 C12.2086521,13.6206423 13.2208571,12.587419 14.6319522,12.587419 C16.8711117,12.587419 17.6993385,13.871347 17.6993385,15.9377454 C18.8955217,15.2176259 20,13.3390512 20,11.5856121 C20,9.83173922 18.6504069,8.20391741 16.9325731,8.20391741 C14.4171215,8.20391741 13.3741858,9.17430795 12.239464,10.7397788 C11.3496946,11.9608259 11.1041738,13.9336497 11.1041738,14.6852338 L10.6133758,14.6852338 C10.6133758,12.9003782 11.4107095,11.1156672 12.2085303,9.58142 C12.5767303,8.86115595 13.0059452,7.98448454 13.0059452,7.20153227 C13.0059452,6.26197991 12.5766897,5.22885296 11.9630095,4.10181415 C11.38006,3.0059508 10.5519144,1.37759896 9.99973613,-5.68434189e-14 C9.44792324,1.37759896 8.61933111,3.00585443 8.03678753,4.10181415 C7.42314789,5.22880478 6.99385183,6.26197991 6.99385183,7.20153227 C6.99385183,7.98448454 7.42318848,8.86120413 7.79126672,9.58142 C8.58860041,11.1156672 9.38642125,12.9004264 9.38642125,14.6852338 L8.895745,14.6852338 C8.895745,13.9336497 8.650143,11.9609223 7.76045483,10.7397788 C6.625733,9.17430795 5.58279731,8.20391741 3.0672645,8.20391741 C1.34955254,8.20391741 0,9.83173922 0,11.5856121 C0,13.3390512 1.10403173,15.2176259 2.30025555,15.9377454 C2.30025555,13.871347 3.12880708,12.587419 5.36800719,12.587419 C6.77906172,12.587419 7.79126672,13.6206423 7.79126672,14.685282 C7.14722115,14.685282 6.47240428,15.0924422 6.47240428,15.9063772 C6.93243103,15.6246898 7.33132116,15.4368179 7.79126672,15.4368179 C7.79126672,16.188402 7.54566472,17.0651697 6.96320233,17.6911846 C6.84019835,17.0651697 6.5950023,16.5642904 6.10428545,16.5642904 C5.52133591,16.5642904 4.96907648,17.2216735 4.96907648,17.9418893 C4.96907648,18.6934252 5.39877849,19.2880237 6.13461019,19.2880237 C7.36168649,19.2880237 8.650143,17.6911364 8.77278162,15.4368179 L9.38642125,15.4368179 C9.38642125,16.2198183 9.32487867,16.8458814 9.14085985,17.3153926 C9.01830242,17.65972 8.895745,17.9732093 8.895745,18.2862168 C8.895745,18.7243597 9.50905987,20.2901679 9.99977673,21.4171586 L9.99981732,21.4170622 L9.99985792,21.4171586 Z M17.6993385,26.171441 C17.6993385,27.9643915 16.8711117,29.0784205 14.6319522,29.0784205 C13.2208571,29.0784205 12.2086521,28.181897 12.2086521,27.2581974 C12.8527789,27.2581974 13.5275145,26.905004 13.5275145,26.1986653 C13.0675284,26.4430578 12.6685977,26.6061146 12.2086521,26.6061146 C12.2086521,25.9539837 12.4537669,25.1932445 13.0367977,24.650059 C13.1593957,25.1931963 13.4049165,25.6278218 13.8956334,25.6278218 C14.4785829,25.6278218 15.0308423,25.057412 15.0308423,24.4325535 C15.0308423,23.7805189 14.6012621,23.2645578 13.8649433,23.2645578 C12.6379481,23.2645578 11.3497758,24.6501072 11.2268936,26.6061628 L10.6134976,26.6061628 C10.6134976,25.9268075 10.6746342,25.3835257 10.8586124,24.9761727 C10.981657,24.6773797 11.1042144,24.4054256 11.1042144,24.1338088 C11.1042144,23.7536801 10.4910213,22.3950177 9.99985792,21.4172549 L9.99981732,21.4173995 L9.99977673,21.4172549 C9.50905987,22.3951141 8.895745,23.7536801 8.895745,24.1338088 C8.895745,24.4054256 9.01834302,24.6773797 9.14085985,24.9761727 C9.32487867,25.3835257 9.38642125,25.9268075 9.38642125,26.6061628 L8.77278162,26.6061628 C8.6501024,24.6501072 7.3616459,23.2645578 6.13461019,23.2645578 C5.39877849,23.2645578 4.96907648,23.7805189 4.96907648,24.4325535 C4.96907648,25.0574602 5.52133591,25.6278218 6.10428545,25.6278218 C6.5950023,25.6278218 6.84019835,25.1931963 6.96320233,24.650059 C7.54566472,25.1931963 7.79126672,25.9539837 7.79126672,26.6061146 C7.33128056,26.6061146 6.93243103,26.443106 6.47240428,26.1986653 C6.47240428,26.9049076 7.14726174,27.2581974 7.79126672,27.2581974 C7.79126672,28.1819452 6.77906172,29.0784205 5.36800719,29.0784205 C3.12880708,29.0784205 2.30025555,27.9643915 2.30025555,26.171441 C1.10403173,26.7962994 5.68434189e-14,28.4262414 5.68434189e-14,29.9476233 C5.68434189e-14,31.4693907 1.34955254,32.881779 3.0672645,32.881779 C5.58279731,32.881779 6.625733,32.0398005 7.76045483,30.6814754 C8.650143,29.6219433 8.895745,27.9102802 8.895745,27.2581492 L9.38642125,27.2581492 C9.38642125,28.8068037 8.58860041,30.3553136 7.79126672,31.6865107 C7.42314789,32.3114174 6.99385183,33.0721083 6.99385183,33.7514636 C6.99385183,34.5666514 7.42318848,35.4631267 8.03678753,36.4409859 C8.61933111,37.3919098 9.44792324,38.8047317 9.99973613,40 C10.5519144,38.8047317 11.38006,37.3918616 11.9630095,36.4409859 C12.5767303,35.4631267 13.0059452,34.5666514 13.0059452,33.7514636 C13.0059452,33.0721565 12.5766897,32.3114655 12.2085303,31.6865107 C11.4107095,30.3553136 10.6133758,28.8067555 10.6133758,27.2581492 L11.1041332,27.2581492 C11.1041332,27.9102802 11.349654,29.6220397 12.2394234,30.6814754 C13.3741452,32.0397523 14.4170809,32.881779 16.9325325,32.881779 C18.6503663,32.881779 19.9999594,31.4693907 19.9999594,29.9476233 C19.9999594,28.4262414 18.8954811,26.7962994 17.6993385,26.171441 Z" id="Shape"></path>
                </g>
            </g>
        </g>
    </g>
</svg>