<?xml version="1.0" encoding="UTF-8"?>
<svg width="710px" height="414px" viewBox="0 0 710 414" version="1.1" xmlns="http://www.w3.org/2000/svg" xmlns:xlink="http://www.w3.org/1999/xlink">
    <!-- Generator: Sketch 48.2 (47327) - http://www.bohemiancoding.com/sketch -->
    <title>底部信封</title>
    <desc>Created with Sketch.</desc>
    <defs></defs>
    <g id="我的-邀请好友" stroke="none" stroke-width="1" fill="none" fill-rule="evenodd" transform="translate(-20.000000, -1203.000000)">
        <g id="Group" transform="translate(20.000000, 148.000000)">
            <g id="底部信封" transform="translate(0.000000, 1055.000000)">
                <polygon id="Rectangle-16" fill="#BB9415" transform="translate(5.000000, 24.487305) scale(-1, 1) translate(-5.000000, -24.487305) " points="9.09494702e-13 0 4.68958206e-13 42.4926758 10 48.9746094 10 13.9921875"></polygon>
                <polygon id="Rectangle-16" fill="#BB9415" points="700 0 700 42.4926758 710 48.9746094 710 13.9921875"></polygon>
                <rect id="Rectangle-5" fill="#F7F7F7" x="10" y="14" width="690" height="400"></rect>
                <path d="M10,14 L710,414 L20,414 C14.4771525,414 10,409.522847 10,404" id="Rectangle-16" fill="#ECCD68" transform="translate(360.000000, 214.000000) scale(-1, 1) translate(-360.000000, -214.000000) "></path>
                <path d="M0,14 L700,414 L10,414 C4.4771525,414 6.76353751e-16,409.522847 0,404" id="Rectangle-16" fill="#FEE38C"></path>
                <g id="579b34688f296" transform="translate(161.000000, 87.000000)" fill="#EFE0BC" fill-rule="nonzero">
                    <path d="M189.65496,24.4057 C195.46438,20.92005 195.89147,18.29027 195.65017,12.25748 C195.41352,6.34116 191.46929,2.94911 186.18402,0.8981 C180.89875,-1.15291 174.74578,0.50369 171.98482,3.89574 C169.15993,7.36629 169.38162,10.99532 172.14258,13.51963 C174.00651,15.22378 176.16569,13.51963 176.08682,11.94193 C175.97815,9.76853 171.51151,10.28536 174.82467,6.73557 C177.06792,4.33207 181.6876,4.6057 184.13302,7.36664 C186.57844,10.12758 187.90577,15.10713 184.60634,17.77938 C175.06132,25.51007 163.38641,13.59852 154.31469,13.67739 C145.24297,13.75626 140.38404,23.06392 128.75611,22.67024 C107.66192,21.95606 94.04694,3.10689 69.75051,2.94911 C58.23254,2.87382 40.8694,18.97937 32.20149,20.61925 C11.77042,24.48459 0.56881,10.52202 0.01662,10.83756 C-0.53557,11.1531 12.71703,26.14116 32.83256,23.14354 C42.55542,21.69464 60.43731,6.69732 70.69713,7.05112 C93.57364,7.83995 105.12826,24.94029 128.12505,27.08777 C139.99099,28.19583 147.05733,20.22482 154.94576,19.98817 C162.83419,19.75152 176.24459,32.45191 189.65496,24.4057 Z" id="Shape"></path>
                    <path d="M198.78616,24.4057 C192.97674,20.92005 192.54963,18.29027 192.79095,12.25748 C193.0276,6.34116 196.97183,2.94911 202.25708,0.8981 C207.54233,-1.15291 213.69534,0.50369 216.45628,3.89574 C219.28118,7.36629 219.05948,10.99532 216.29852,13.51963 C214.43461,15.22378 212.27542,13.51963 212.35429,11.94193 C212.46297,9.76853 216.92959,10.28536 213.61645,6.73557 C211.3732,4.33207 206.75352,4.6057 204.30808,7.36664 C201.86264,10.12758 200.53533,15.10713 203.83478,17.77938 C213.3798,25.51007 225.05471,13.59852 234.12641,13.67739 C243.19811,13.75626 248.05706,23.06392 259.685,22.67024 C280.7792,21.95606 294.39417,3.10689 318.69059,2.94911 C330.20858,2.87382 347.57169,18.97937 356.23963,20.61925 C376.67069,24.48459 387.8723,10.52202 388.4245,10.83756 C388.9767,11.1531 375.72408,26.14116 355.60856,23.14354 C345.88569,21.69464 328.0038,6.69732 317.74398,7.05112 C294.86747,7.83995 283.31286,24.94029 260.31607,27.08777 C248.45013,28.19583 241.38379,20.22482 233.49534,19.98817 C225.60689,19.75152 212.19653,32.45191 198.78616,24.4057 Z" id="Shape"></path>
                    <path d="M54.58005,13.31488 C50.50009,15.76284 50.20013,17.60972 50.3696,21.84658 C50.5358,26.00163 53.30584,28.38386 57.01768,29.82427 C60.72952,31.26468 65.05078,30.10127 66.9898,27.71904 C68.97372,25.28167 68.81802,22.73298 66.879,20.96016 C65.56997,19.76333 64.05356,20.96016 64.10896,22.06818 C64.18528,23.59456 67.3222,23.23158 64.99537,25.72462 C63.41993,27.4126 60.17552,27.22044 58.45809,25.28142 C56.74066,23.3424 55.80849,19.84527 58.12568,17.96853 C64.82916,12.53927 78.95633,28.93785 96.01973,29.04866 C104.10881,29.10154 116.30296,17.7906 122.39044,16.63891 C136.73922,13.92427 144.60609,23.7302 144.99391,23.50858 C145.38173,23.28696 136.07439,12.76087 121.94723,14.8661 C115.11886,15.88365 102.56039,26.41629 95.35492,26.16782 C79.28873,25.61381 63.99815,7.66401 54.58004,13.31488 L54.58005,13.31488 Z" id="Shape"></path>
                    <path d="M331.4238,13.31488 C335.50377,15.76284 335.80373,17.60972 335.63426,21.84658 C335.46804,26.00163 332.69801,28.38386 328.98618,29.82427 C325.27435,31.26468 320.95309,30.10127 319.01406,27.71904 C317.03015,25.28167 317.18583,22.73298 319.12487,20.96016 C320.43389,19.76333 321.9503,20.96016 321.89489,22.06818 C321.81857,23.59456 318.68165,23.23158 321.00847,25.72462 C322.58391,27.4126 325.82834,27.22044 327.54576,25.28142 C329.26318,23.3424 330.19536,19.84527 327.87817,17.96853 C321.17469,12.53927 307.04751,28.93785 289.98411,29.04866 C281.89504,29.10154 269.70089,17.7906 263.6134,16.63891 C249.26464,13.92427 241.39774,23.7302 241.00995,23.50858 C240.62216,23.28696 249.92944,12.76087 264.05662,14.8661 C270.88498,15.88365 283.44345,26.41629 290.64893,26.16782 C306.71512,25.61381 322.0057,7.66401 331.4238,13.31488 Z" id="Shape"></path>
                </g>
            </g>
        </g>
    </g>
</svg>