<?xml version="1.0" encoding="UTF-8"?>
<svg width="460px" height="343px" viewBox="0 0 460 343" version="1.1" xmlns="http://www.w3.org/2000/svg" xmlns:xlink="http://www.w3.org/1999/xlink">
    <!-- Generator: Sketch 48.2 (47327) - http://www.bohemiancoding.com/sketch -->
    <title>邀请提示</title>
    <desc>Created with Sketch.</desc>
    <defs></defs>
    <g id="我的-邀请好友点击提示" stroke="none" stroke-width="1" fill="none" fill-rule="evenodd" transform="translate(-240.000000, -138.000000)">
        <g id="邀请提示" transform="translate(239.000000, 138.000000)">
            <path d="M72.984,266.952 L75.992,266.952 L75.992,269.768 L88.184,269.768 L88.184,272.616 L75.992,272.616 L75.992,276.008 L86.168,276.008 L86.168,286.856 L64.344,286.856 L64.344,276.008 L72.984,276.008 L72.984,266.952 Z M83.128,284.04 L83.128,278.856 L67.352,278.856 L67.352,284.04 L83.128,284.04 Z M64.28,287.912 L66.808,289.16 C65.656,291.912 64.28,294.28 62.744,296.264 L60.248,294.44 C61.784,292.616 63.128,290.44 64.28,287.912 Z M71.896,288.936 C72.536,290.984 73.112,293.224 73.624,295.624 L70.552,296.328 C70.168,293.768 69.656,291.496 69.048,289.544 L71.896,288.936 Z M78.552,288.52 C79.48,290.696 80.28,293.032 80.984,295.56 L77.976,296.264 C77.368,293.576 76.6,291.176 75.704,289.096 L78.552,288.52 Z M84.952,287.816 C86.968,290.44 88.504,292.712 89.592,294.664 L87.064,296.424 C85.944,294.312 84.44,291.944 82.52,289.384 L84.952,287.816 Z M95.256,271.24 L105.432,271.24 L105.432,266.984 L108.568,266.984 L108.568,271.24 L118.616,271.24 L118.616,274.152 L108.568,274.152 L108.568,278.76 L121.24,278.76 L121.24,281.704 L108.568,281.704 L108.568,292.232 L115.384,292.232 L115.384,284.04 L118.296,284.04 L118.296,296.36 L115.384,296.36 L115.384,295.048 L98.648,295.048 L98.648,296.36 L95.736,296.36 L95.736,284.04 L98.648,284.04 L98.648,292.232 L105.432,292.232 L105.432,281.704 L92.792,281.704 L92.792,278.76 L105.432,278.76 L105.432,274.152 L95.256,274.152 L95.256,271.24 Z M150.584,280.52 L150.584,296.328 L147.576,296.328 L147.576,294.728 L135.192,294.728 L135.192,296.328 L132.152,296.328 L132.152,284.2 C130.232,286.44 128.056,288.328 125.592,289.864 L123.96,286.984 C128.76,283.848 132.312,279.56 134.552,274.056 L125.144,274.056 L125.144,271.144 L135.576,271.144 C136.024,269.672 136.408,268.136 136.696,266.568 L139.8,266.952 C139.512,268.392 139.192,269.8 138.808,271.144 L153.336,271.144 L153.336,274.056 L137.88,274.056 C137.016,276.424 135.992,278.568 134.808,280.52 L150.584,280.52 Z M135.192,291.816 L147.576,291.816 L147.576,283.4 L135.192,283.4 L135.192,291.816 Z M167.928,266.76 L171.064,266.76 L171.064,276.392 L182.904,276.392 L182.904,279.336 L171.064,279.336 L171.064,292.2 L185.368,292.2 L185.368,295.144 L156.696,295.144 L156.696,292.2 L167.928,292.2 L167.928,266.76 Z M195.32,283.304 L195.32,283.528 C195.288,284.552 195.224,285.512 195.128,286.408 L202.072,286.408 L202.072,283.304 L195.32,283.304 Z M194.68,289.096 C194.008,291.912 192.824,294.376 191.128,296.424 L188.792,294.312 C191.096,291.56 192.28,288.04 192.344,283.752 L192.344,276.68 C191.672,277.16 191,277.608 190.328,278.056 L188.376,275.72 C192.184,273.512 195.416,270.44 198.104,266.536 L201.176,267.24 C200.728,267.88 200.312,268.52 199.896,269.128 L211.416,269.128 L211.416,271.368 C210.2,272.552 208.984,273.576 207.768,274.472 L215.416,274.472 L215.416,293.064 C215.416,295.112 214.232,296.136 211.896,296.136 L207.864,296.136 L207.128,293.32 C208.536,293.416 209.816,293.48 211.032,293.48 C211.96,293.48 212.44,292.968 212.44,292.008 L212.44,289.096 L205.048,289.096 L205.048,295.72 L202.072,295.72 L202.072,289.096 L194.68,289.096 Z M212.44,286.408 L212.44,283.304 L205.048,283.304 L205.048,286.408 L212.44,286.408 Z M212.44,280.616 L212.44,277.224 L205.048,277.224 L205.048,280.616 L212.44,280.616 Z M195.128,274.472 L203.48,274.472 C204.728,273.672 205.976,272.776 207.224,271.752 L197.816,271.752 C196.92,272.712 196.024,273.64 195.128,274.472 Z M202.072,277.224 L195.32,277.224 L195.32,280.616 L202.072,280.616 L202.072,277.224 Z M4.28,313.08 C6.232,314.776 7.864,316.472 9.176,318.168 L7.096,320.248 C5.944,318.648 4.312,316.888 2.264,315.032 L4.28,313.08 Z M23.032,341.752 C21.208,341.752 19.224,341.72 17.08,341.688 C14.904,341.656 13.144,341.464 11.736,341.144 C10.392,340.76 9.24,339.992 8.28,338.904 C7.832,338.36 7.384,338.104 7,338.104 C6.424,338.104 5.432,339.544 3.96,342.424 L1.816,340.408 C3.224,337.912 4.504,336.28 5.624,335.576 L5.624,326.392 L1.976,326.392 L1.976,323.608 L8.504,323.608 L8.504,335.704 C8.696,335.832 8.856,335.992 9.016,336.184 C9.816,337.048 10.616,337.688 11.448,338.104 C12.44,338.552 13.912,338.84 15.864,338.904 C17.752,338.936 19.992,338.968 22.616,338.968 C24.152,338.968 25.752,338.936 27.384,338.904 C28.984,338.872 30.232,338.808 31.096,338.744 L30.36,341.752 L23.032,341.752 Z M11.256,314.904 L14.168,314.904 C14.36,314.136 14.52,313.336 14.648,312.536 L17.656,312.92 C17.496,313.624 17.304,314.296 17.048,314.904 L20.6,314.904 L20.6,322.136 C21.912,319.608 22.808,316.44 23.32,312.6 L26.104,313.112 C25.848,314.584 25.56,315.96 25.208,317.24 L30.904,317.24 L30.904,320.088 L29.56,320.088 C29.432,323.544 28.92,326.584 28.088,329.272 C29.08,331 30.072,332.952 31.064,335.128 L29.08,337.112 C28.376,335.384 27.64,333.752 26.872,332.248 C25.72,334.488 24.248,336.376 22.456,337.88 L20.92,335.448 C22.808,333.944 24.248,331.896 25.24,329.304 C24.344,327.832 23.384,326.456 22.392,325.208 L23.896,323.448 C24.664,324.28 25.432,325.208 26.168,326.264 C26.552,324.376 26.808,322.328 26.904,320.088 L24.28,320.088 C23.512,322.008 22.584,323.672 21.496,325.048 L20.6,323.928 L20.6,324.088 L16.856,324.088 L17.432,325.592 L21.656,325.592 L21.656,328.12 L15.576,328.12 C15.512,328.632 15.448,329.08 15.384,329.528 L20.792,329.528 C20.792,333.304 20.536,335.576 20.056,336.408 C19.544,337.24 18.68,337.656 17.432,337.688 L15.64,337.688 L14.904,335.224 L16.76,335.224 C17.304,335.192 17.656,334.968 17.848,334.584 C17.976,334.2 18.04,333.304 18.072,331.896 L14.84,331.896 C14.712,332.344 14.552,332.76 14.424,333.144 C13.784,334.648 12.824,335.992 11.576,337.176 L9.88,334.968 C10.84,334.04 11.544,333.016 12.024,331.864 C12.408,330.904 12.728,329.656 12.952,328.12 L10.264,328.12 L10.264,325.592 L14.584,325.592 L13.976,324.088 L11.256,324.088 L11.256,314.904 Z M18.072,322.072 L18.072,320.504 L13.784,320.504 L13.784,322.072 L18.072,322.072 Z M13.784,318.456 L18.072,318.456 L18.072,316.92 L13.784,316.92 L13.784,318.456 Z M51.64,312.76 L54.552,312.76 L54.552,314.616 L62.232,314.616 L62.232,317.08 L54.552,317.08 L54.552,318.648 L61.112,318.648 L61.112,321.048 L54.552,321.048 L54.552,322.648 L63.032,322.648 L63.032,325.176 L43.256,325.176 L43.256,322.648 L51.64,322.648 L51.64,321.048 L45.496,321.048 L45.496,318.648 L51.64,318.648 L51.64,317.08 L44.152,317.08 L44.152,314.616 L51.64,314.616 L51.64,312.76 Z M48.408,333.24 L48.408,335.032 L57.912,335.032 L57.912,333.24 L48.408,333.24 Z M57.912,330.936 L57.912,329.112 L48.408,329.112 L48.408,330.936 L57.912,330.936 Z M48.408,337.336 L48.408,342.296 L45.528,342.296 L45.528,326.648 L60.824,326.648 L60.824,339.128 C60.824,341.112 59.8,342.104 57.784,342.104 L55.128,342.104 L54.424,339.416 L56.92,339.576 C57.56,339.576 57.912,339.224 57.912,338.52 L57.912,337.336 L48.408,337.336 Z M37.912,313.016 C39.96,314.584 41.72,316.152 43.128,317.72 L41.048,319.832 C39.8,318.36 38.04,316.76 35.768,315.096 L37.912,313.016 Z M33.56,322.296 L40.824,322.296 L40.824,335.672 C41.656,334.872 42.488,334.008 43.384,333.08 L44.184,336.28 C42.328,338.2 40.344,339.896 38.264,341.368 L37.112,338.616 C37.624,338.168 37.912,337.592 37.912,336.92 L37.912,325.208 L33.56,325.208 L33.56,322.296 Z M70.808,312.472 L73.784,312.728 C73.432,314.84 73.08,316.792 72.728,318.616 L78.072,318.616 L78.072,320.28 C77.848,325.272 76.856,329.624 75.128,333.336 C76.92,334.712 78.36,335.96 79.448,337.048 L77.368,339.448 C76.344,338.392 75.096,337.24 73.688,336.024 C72.12,338.52 70.168,340.696 67.832,342.488 L65.752,339.928 C68.024,338.296 69.88,336.344 71.32,334.072 C69.848,332.888 68.248,331.672 66.52,330.392 C67.48,327.64 68.312,324.696 69.08,321.528 L66.008,321.528 L66.008,318.616 L69.72,318.616 C70.104,316.632 70.488,314.584 70.808,312.472 Z M72.696,331.512 C74.04,328.568 74.84,325.24 75.096,321.528 L72.12,321.528 C71.384,324.664 70.616,327.32 69.848,329.464 C70.872,330.168 71.832,330.872 72.696,331.512 Z M78.84,325.944 L85.784,325.944 L85.784,322.264 C87.384,320.824 88.952,319.096 90.424,317.112 L79.736,317.112 L79.736,314.168 L93.912,314.168 L93.912,317.112 C92.408,319.256 90.712,321.272 88.824,323.192 L88.824,325.944 L95.064,325.944 L95.064,328.888 L88.824,328.888 L88.824,338.392 C88.824,340.76 87.896,341.944 86.104,341.944 L81.368,341.944 L80.568,339.064 C81.88,339.064 83.32,339.096 84.856,339.096 C85.464,339.096 85.784,338.552 85.784,337.464 L85.784,328.888 L78.84,328.888 L78.84,325.944 Z M98.616,316.92 L107.16,316.92 C107.32,315.576 107.48,314.2 107.608,312.792 L110.68,312.792 C110.52,314.232 110.36,315.608 110.2,316.92 L126.52,316.92 L126.52,319.864 L109.784,319.864 C109.528,321.336 109.272,322.712 109.016,323.992 L123.48,323.992 L123.48,326.648 C122.296,330.008 120.408,332.92 117.784,335.416 C120.28,337.176 123.352,338.52 127,339.448 L125.464,342.232 C121.4,341.08 118.04,339.448 115.416,337.4 C112.664,339.384 109.368,341.048 105.528,342.36 L103.96,339.48 C107.608,338.456 110.68,337.08 113.176,335.416 C110.872,333.048 109.24,330.264 108.28,327.064 C107.928,328.344 107.544,329.528 107.16,330.616 C105.464,334.872 102.936,338.68 99.608,342.04 L97.656,339.544 C100.632,336.472 102.872,333.08 104.376,329.304 C105.336,326.744 106.104,323.576 106.712,319.864 L98.616,319.864 L98.616,316.92 Z M111,326.808 C112.024,329.432 113.528,331.672 115.544,333.592 C117.72,331.64 119.288,329.368 120.312,326.808 L111,326.808 Z M151.16,325.752 L180.12,325.752 L180.12,328.76 L151.16,328.76 L151.16,325.752 Z M211.864,330.168 C211.608,332.792 211.256,334.488 210.744,335.288 C210.264,336.056 209.208,336.472 207.608,336.472 L201.88,336.472 C199.96,336.472 199.032,335.512 199.032,333.624 L199.032,322.84 L207.48,322.84 L207.48,317.464 L198.616,317.464 L198.616,314.616 L210.456,314.616 L210.456,325.72 L202.04,325.72 L202.04,332.44 C202.04,333.144 202.424,333.496 203.192,333.528 L207.096,333.528 C207.864,333.528 208.344,333.208 208.568,332.568 C208.76,331.992 208.888,330.872 208.984,329.208 L211.864,330.168 Z M185.176,328.088 L187.896,328.408 C187.832,330.296 187.64,332.12 187.384,333.848 C188.216,335.192 189.112,336.216 190.136,336.984 L190.136,326.392 L183.8,326.392 L183.8,323.576 L189.4,323.576 L189.4,319.544 L184.376,319.544 L184.376,316.792 L189.4,316.792 L189.4,312.632 L192.408,312.632 L192.408,316.792 L197.144,316.792 L197.144,319.544 L192.408,319.544 L192.408,323.576 L197.56,323.576 L197.56,326.392 L193.08,326.392 L193.08,330.232 L197.336,330.232 L197.336,332.984 L193.08,332.984 L193.08,338.328 C195.128,338.744 198.744,338.968 203.992,338.968 C207.768,338.968 210.616,338.904 212.472,338.776 L211.96,341.688 L204.664,341.688 C197.144,341.688 192.44,341.24 190.552,340.408 C189.112,339.736 187.832,338.648 186.744,337.112 C186.296,338.968 185.72,340.696 185.048,342.328 L182.712,340.28 C184.184,336.632 184.984,332.568 185.176,328.088 Z M222.104,320.024 C223.128,321.624 224.088,323.384 225.016,325.304 L222.552,326.552 L228.12,326.552 L228.12,319.224 L216.856,319.224 L216.856,316.312 L228.12,316.312 L228.12,312.888 L231.192,312.888 L231.192,316.312 L242.712,316.312 L242.712,319.224 L231.192,319.224 L231.192,326.552 L233.944,326.552 C235.096,324.44 236.056,322.168 236.888,319.8 L239.832,320.856 C238.968,322.968 238.008,324.856 236.952,326.552 L243.64,326.552 L243.64,329.464 L233.592,329.464 C235.832,332.792 239.512,335.8 244.664,338.488 L242.584,341.112 C237.208,337.656 233.432,333.848 231.192,329.624 L231.192,342.232 L228.12,342.232 L228.12,329.528 C226.072,334.008 222.136,337.88 216.312,341.144 L214.648,338.392 C220.056,335.736 223.736,332.76 225.656,329.464 L215.608,329.464 L215.608,326.552 L222.392,326.552 C221.464,324.6 220.472,322.84 219.448,321.304 L222.104,320.024 Z M255.608,315.416 L255.608,322.776 L257.208,321.208 C258.648,322.488 259.864,323.8 260.856,325.112 L258.936,327 C258.104,325.848 257.016,324.6 255.608,323.32 L255.608,337.112 L250.776,337.112 L250.776,339.704 L247.992,339.704 L247.992,315.416 L255.608,315.416 Z M250.776,334.296 L252.856,334.296 L252.856,318.2 L250.776,318.2 L250.776,334.296 Z M257.816,313.048 C259.224,314.168 260.44,315.288 261.432,316.44 L259.544,318.36 C258.712,317.24 257.496,316.056 255.96,314.808 L257.816,313.048 Z M258.52,330.36 L261.016,331.352 C260.024,335.096 258.936,338.616 257.752,341.88 L255.096,340.728 C256.44,337.368 257.56,333.912 258.52,330.36 Z M263.512,312.696 L266.232,313.144 C266.104,313.784 265.944,314.424 265.752,315.032 L275.736,315.032 L275.736,317.848 L264.76,317.848 C264.408,318.616 264.024,319.352 263.608,319.992 L274.968,319.992 C274.904,322.776 274.84,325.24 274.776,327.384 L276.632,327.384 L276.632,330.072 L274.712,330.072 C274.648,332.024 274.584,333.656 274.52,335 L276.024,335 L276.024,337.528 L274.392,337.528 C274.328,338.36 274.264,338.904 274.2,339.16 C273.976,340.184 273.56,340.952 272.92,341.432 C272.28,341.88 271.384,342.136 270.168,342.136 C269.528,342.136 268.792,342.168 267.96,342.168 L267.096,339.544 C268.088,339.64 268.984,339.704 269.784,339.704 C270.168,339.704 270.552,339.608 270.904,339.448 C271.224,339.256 271.48,338.808 271.64,338.168 C271.64,338.04 271.672,337.848 271.704,337.528 L261.688,337.528 C262.104,335.032 262.456,332.536 262.712,330.072 L260.152,330.072 L260.152,327.384 L262.968,327.384 C263.16,325.016 263.32,322.68 263.384,320.376 C262.744,321.336 262.072,322.2 261.336,322.904 L259.48,320.6 C261.464,318.616 262.808,315.992 263.512,312.696 Z M265.56,330.072 C265.368,331.864 265.176,333.496 264.952,335 L271.8,335 L271.96,330.072 L265.56,330.072 Z M272.024,327.384 C272.024,325.88 272.056,324.248 272.12,322.52 L266.04,322.52 C265.976,324.248 265.88,325.848 265.784,327.384 L272.024,327.384 Z M268.344,322.808 C269.432,323.64 270.328,324.504 271.064,325.4 L269.304,327.128 C268.664,326.296 267.736,325.432 266.584,324.472 L268.344,322.808 Z M267.864,330.2 C269.048,331.096 270.04,332.024 270.872,332.952 L269.112,334.744 C268.376,333.848 267.384,332.888 266.168,331.896 L267.864,330.2 Z" id="点击右上角-邀请好友-一起来嗨" fill="#FFFFFF"></path>
            <path d="M453.171875,10.9628906 C444.783203,23.2246094 422.277863,36.4715993 411.453923,41.5434373 C372.722964,59.6918324 343.584406,90.3306243 334.677734,138.136719 C332.301758,150.889648 332.763672,161.268555 336.96582,173.950195 C337.473378,175.481951 345.721707,184.397612 346.896484,185.507813 C370.361958,207.683387 403.317546,175.389946 396.805664,147.647461 C392.08607,127.540634 361.736328,124.620117 351.755859,127.506836 C333.291577,132.847386 303.780584,165.970348 291.558594,181.703125 C277.779969,199.439682 267.134556,225.231888 248.058594,238.460938 C245.453593,240.267487 242.623023,241.962243 239.535156,242.679688 C234.471521,243.856187 221.024089,246.654297 215.845703,247.111328" id="Path-4" stroke="#FFFFFF" stroke-width="3" stroke-dasharray="8"></path>
            <polygon id="Path-5" fill="#FFFFFF" points="443 8.30566406 460.44043 0 459.421387 19.9213867 453.356445 10.9106445"></polygon>
        </g>
    </g>
</svg>