<?xml version="1.0" encoding="UTF-8"?>
<svg width="66px" height="66px" viewBox="0 0 66 66" version="1.1" xmlns="http://www.w3.org/2000/svg" xmlns:xlink="http://www.w3.org/1999/xlink">
    <!-- Generator: Sketch 48.2 (47327) - http://www.bohemiancoding.com/sketch -->
    <title>头像</title>
    <desc>Created with Sketch.</desc>
    <defs>
        <rect id="path-1" x="0" y="0" width="64" height="64" rx="32"></rect>
    </defs>
    <g id="我的" stroke="none" stroke-width="1" fill="none" fill-rule="evenodd" transform="translate(-39.000000, -53.000000)">
        <g id="navigation">
            <g id="菜单栏">
                <g id="头像" transform="translate(40.000000, 54.000000)">
                    <g id="Rectangle-13">
                        <use fill="#F6F0E4" fill-rule="evenodd" xlink:href="#path-1"></use>
                        <rect stroke="#FFFFFF" stroke-width="1" x="-0.5" y="-0.5" width="65" height="65" rx="32.5"></rect>
                    </g>
                    <path d="M31.9997396,0 C14.3278646,0 0,14.2593635 0,31.8464302 C0,42.6788297 5.43671875,52.2467537 13.7414063,58 C15.3625,52.3810022 19.4638021,48.1506207 25.04375,46.2231963 C25.2515102,46.1515014 25.4604814,46.0833306 25.6705729,46.0187136 C26.3956409,45.8001148 26.9481171,45.660216 27.5057291,45.5434015 C27.5809896,45.5275923 27.6572916,45.5135973 27.7330729,45.4985656 C28.2363662,45.3981206 28.7432238,45.3162542 29.2526041,45.2531346 C29.3388021,45.2422496 29.4244791,45.2303279 29.5109375,45.2204796 C29.8036656,45.186551 30.0970388,45.1583826 30.3908854,45.1359911 L31.55,45.1359911 C31.6606771,45.1435069 31.7786458,45.1435069 31.896875,45.1359911 C23.8458333,45.1359911 17.2088541,38.6876592 16.9466146,30.6358616 C16.4007813,20.9723049 25.1559896,15.0415293 31.50625,15.1607461 C31.6705729,15.1553036 31.8346354,15.1483061 32.0002604,15.1483061 C32.1575521,15.1483061 32.3130208,15.1553036 32.46875,15.1599686 C34.3057292,15.1288685 36.3398438,15.6005523 38.2945313,16.5198174 C39.5931434,17.1155626 40.7999488,17.8922118 41.8786458,18.8264029 C45.0416666,21.5056704 47.3390625,25.5476375 47.0664062,30.619534 C46.7966146,38.6829942 40.1580729,45.135732 32.0002604,45.135732 L33.6242187,45.135732 C33.9176332,45.1581108 34.2105727,45.1862792 34.5028646,45.2202204 C34.5903646,45.2300687 34.6765625,45.2419904 34.7635416,45.2531346 C35.0636635,45.2899545 35.3628775,45.3337657 35.6609375,45.3845322 C35.8671875,45.4192606 36.0716146,45.457099 36.2747396,45.497529 C36.353125,45.513079 36.4317708,45.5273332 36.509375,45.5439199 C37.0645127,45.6603142 37.6145528,45.7996069 38.1580729,45.9614378 C38.2226562,45.9808753 38.2864583,46.0016086 38.3510416,46.0215645 C38.5562499,46.0850603 38.7596354,46.1511479 38.9611979,46.2208638 C44.5393229,48.1467332 48.6421874,52.3758189 50.2682291,57.9935208 C58.5674479,52.2397562 63.9999999,42.6749421 64,31.8464302 C64,14.2593635 49.671875,0 31.9997396,0 Z" id="Shape" fill="#FFFFFF" fill-rule="nonzero"></path>
                    <path d="M47,30.484975 C43.0295987,32.9610568 32.6182264,29.3796832 29.5246296,23.9206357 C26.6396599,28.9772874 21.7511958,33.4560139 17,30.4937903 C17.2613028,38.5489642 23.8743134,44.9999999 31.9998703,45 C40.1282814,45 46.7431085,38.5445565 47,30.484975 Z M38.2716563,16.3720864 C39.5581969,16.9814944 40.7589311,17.757332 41.8429675,18.6796391 C40.7681069,17.7450789 39.5656159,16.9681061 38.2716563,16.3720864 Z M32.5668351,15.198602 C32.3951719,15.1191612 32.2243685,15 32.0512724,15 C31.8690057,15 31.6884584,15.1191612 31.5076246,15.2118421 C31.681867,15.2648026 31.8561094,15.3221769 32.0271995,15.503125 C32.2043077,15.3133494 32.3854281,15.2427361 32.5668351,15.198602 Z" id="Shape" fill="#FCE9EA" fill-rule="nonzero"></path>
                    <path d="M27.942893,46.0679509 C28.300143,45.7922428 28.6623375,45.5481736 29.0220597,45.2860249 C28.6623375,45.5481736 28.300143,45.7967619 27.942893,46.0679509 Z M35.0304072,45 C35.392645,45.171752 35.7494924,45.3796631 36.1095739,45.5740148 C35.7494922,45.3796631 35.392645,45.1717531 35.0304072,45 Z M26.0839637,46.7397206 C26.4431633,46.4188152 26.8007942,46.0798303 27.1631304,45.763444 C26.8007938,46.0798303 26.4447316,46.4188152 26.0839637,46.7397206 Z M36.8254992,45.2852252 C37.1848222,45.5564132 37.5477383,45.8095216 37.9046659,46.09427 C37.5477383,45.8050025 37.18602,45.5518941 36.8254992,45.2852252 Z M38.7332297,45.7623778 C39.0944082,46.1013627 39.4512179,46.4629463 39.8123964,46.8109704 C39.4526741,46.4629463 39.0958647,46.1013616 38.7332297,45.7623778 Z M39.5467586,46.02921 L39.682083,46.0777249 C39.5097002,46.5719801 39.2874751,47.0470109 39.0189145,47.4953211 C40.104411,49.1845477 39.8319158,56.5502897 38.2006374,55.3861975 L35.3443175,53.3610983 L32.4953837,51.335999 L32.6821471,51.2029827 C32.6198927,51.2045821 32.557902,51.2077809 32.4953837,51.2077809 C32.4302275,51.2077809 32.3658627,51.2043155 32.3009704,51.2027162 L32.4877338,51.335999 L29.6388,53.3610983 L26.7824801,55.3861975 C25.141969,56.5524222 24.8702651,49.1594904 25.9668409,47.4870575 C25.7011301,47.0422007 25.4809596,46.5711463 25.3097396,46.0811903 C25.3561666,46.0643966 25.4023299,46.0478696 25.448757,46.0316091 C19.7965251,48.0143244 15.6420938,52.3654756 14,58.1446189 C19.2454675,61.8346872 25.619693,64 32.4951199,64 C39.3747674,64 45.7524222,61.8320215 51,58.1379547 C49.353158,52.3598776 45.197144,48.0097928 39.5467586,46.02921 Z M29.7123975,45.5694947 C30.0724824,45.3796631 30.4303915,45.171752 30.7915641,45 C30.4293035,45.171752 30.0724822,45.3796631 29.7123975,45.5694947 Z" id="Shape" fill="#C1D4FF" fill-rule="nonzero"></path>
                    <path d="M25.6398326,47.4533559 C25.8520823,47.1365234 26.116752,47.0338767 26.4343557,47.2546687 L29.2167282,49.1848825 L31.8097205,50.9951725 C31.8729329,50.996697 31.9356314,51 31.9991007,51 C32.0600004,51 32.1201292,50.9969511 32.181029,50.9954266 L34.7745352,49.1848825 L37.5569077,47.2546687 C37.8760531,47.0318442 38.1412367,47.1380479 38.3540003,47.4612323 C38.6156082,47.0339275 38.8320801,46.5811541 39,46.1100571 L38.8681791,46.0638154 C38.6685687,45.9954892 38.4678561,45.9303526 38.2661197,45.868431 C38.2023934,45.8488672 38.139438,45.8285411 38.0757117,45.8094855 C37.5394042,45.6508337 36.9966633,45.5142773 36.4488924,45.4001694 C36.3720611,45.3841626 36.2942019,45.3699344 36.2173706,45.3546898 C35.9236771,45.2967038 35.6287933,45.2447764 35.3329112,45.1989414 C35.1310899,45.1681861 34.9288417,45.140235 34.7262265,45.1150963 C34.6404016,45.1041711 34.5553476,45.0924836 34.4690087,45.0828287 C34.1805956,45.0495542 33.8915434,45.0219392 33.6020227,45 L31.8976011,45 C31.7809409,45.0073682 31.6645376,45.0073682 31.5553292,45 L30.4115963,45 C30.1216491,45.0219516 29.832169,45.0495666 29.5433255,45.0828287 C29.4577575,45.0924836 29.3734743,45.1041711 29.2884202,45.1148422 C28.9922893,45.1515226 28.6969753,45.1943863 28.4026761,45.2434046 C28.1965934,45.2779589 27.9920526,45.315308 27.7890535,45.355452 C27.7142778,45.3701884 27.6392452,45.3839085 27.5647266,45.3994072 C27.0145142,45.5139269 26.4693694,45.6510775 25.9307124,45.8105018 C25.8713544,45.828033 25.8130243,45.8473428 25.7539232,45.8653821 C25.5009259,45.9428419 25.2495651,46.025434 25,46.113106 C25.16659,46.5802231 25.3809792,47.0293017 25.6398326,47.4533559 Z" id="Shape" fill="#FEFEFE" fill-rule="nonzero"></path>
                    <path d="M37.5682573,48.1184708 L34.7838554,50.0573625 L32.1884574,51.8760464 L32.0063964,52.0034002 L34.7835982,53.9422919 L37.5680001,55.8811835 C39.1582053,56.9957208 39.4238395,49.9435352 38.3656742,48.3262183 C38.1530126,48.0013257 37.8876355,47.8946446 37.5682573,48.1184708 Z M26.4375926,48.1184708 C26.1197573,47.8966863 25.8548945,47.9997944 25.64249,48.3180513 C24.5735245,49.9190342 24.8383872,56.9975074 26.4375926,55.8809283 L29.2219945,53.9420367 L31.9991963,52.003145 L31.8171353,51.875536 L29.2222517,50.0571072 L26.4375926,48.1184708 Z" id="Shape" fill="#006765" fill-rule="nonzero"></path>
                    <path d="M29,23.7604156 C32.003587,29.1275656 42.1120355,32.6486504 45.966916,30.2142509 L45.978757,30.2071134 C46.2425345,25.2182513 44.0202026,21.2426602 40.9599298,18.6076458 C39.9075162,17.7007532 38.7417027,16.9379661 37.4925277,16.3389384 C35.6014923,15.4347693 33.6336163,14.9708314 31.8564561,15.0014207 C31.6969803,15.0042247 31.5377565,15.0080484 31.3818078,15.0187546 C31.8861847,16.8255634 30.8817138,20.4208273 29,23.7604156 Z" id="Shape" fill="#333646" fill-rule="nonzero"></path>
                    <path d="M29.4407784,24.2186934 C31.3583421,20.7043251 32.3819499,16.9209001 31.8679638,15.0195306 C31.71297,15.0096819 31.5577696,15.0037786 31.4025008,15.001826 C25.1422418,14.8784301 16.510766,21.0171068 17.0216713,31.0027842 C17.0306571,31.0086857 17.0396429,31.0135143 17.0486286,31.0194158 C21.7497278,34.0841939 26.5863838,29.4504104 29.4407784,24.2186934 Z" id="Shape" fill="#6F7281" fill-rule="nonzero"></path>
                </g>
            </g>
        </g>
    </g>
</svg>