<?xml version="1.0" encoding="UTF-8"?>
<svg width="14px" height="24px" viewBox="0 0 14 24" version="1.1" xmlns="http://www.w3.org/2000/svg" xmlns:xlink="http://www.w3.org/1999/xlink">
    <!-- Generator: Sketch 48.1 (47250) - http://www.bohemiancoding.com/sketch -->
    <title>more</title>
    <desc>Created with Sketch.</desc>
    <defs></defs>
    <g id="首页-未登录" stroke="none" stroke-width="1" fill="none" fill-rule="evenodd" transform="translate(-687.000000, -1586.000000)">
        <g id="精选基金" transform="translate(18.000000, 1550.000000)" fill="#999999" fill-rule="nonzero">
            <g id="more" transform="translate(669.000000, 36.000000)">
                <path d="M1.09943757,24 C1.38020247,24 1.66096738,23.8919859 1.87694038,23.678658 L12.8780652,12.67472 C13.3073116,12.2453639 13.3073116,11.5513732 12.8780652,11.1220171 C12.4488189,10.692661 11.7550056,10.692661 11.3257593,11.1220171 L0.321934758,22.1259551 C-0.107311586,22.5553112 -0.107311586,23.2493019 0.321934758,23.678658 C0.537907762,23.8946862 0.818672666,24 1.09943757,24 Z" id="Shape"></path>
                <path d="M12.1003375,13.2 C12.3811599,13.2 12.6619822,13.0919859 12.8779994,12.878658 C13.3073335,12.4493019 13.3073335,11.7553112 12.8779994,11.3259551 L1.87462412,0.322017082 C1.44528997,-0.107339027 0.751334765,-0.107339027 0.322000614,0.322017082 C-0.107333538,0.751373191 -0.107333538,1.44536388 0.322000614,1.87471999 L11.3253759,12.8759577 C11.5386929,13.0919859 11.8195152,13.2 12.1003375,13.2 Z" id="Shape"></path>
            </g>
        </g>
    </g>
</svg>