<?xml version="1.0" encoding="UTF-8"?>
<svg width="32px" height="36px" viewBox="0 0 32 36" version="1.1" xmlns="http://www.w3.org/2000/svg" xmlns:xlink="http://www.w3.org/1999/xlink">
    <!-- Generator: Sketch 48.1 (47250) - http://www.bohemiancoding.com/sketch -->
    <title>inform_black</title>
    <desc>Created with Sketch.</desc>
    <defs></defs>
    <g id="首页-向上滑动2" stroke="none" stroke-width="1" fill="none" fill-rule="evenodd" transform="translate(-676.000000, -66.000000)">
        <g id="导航" fill="#32374F" fill-rule="nonzero">
            <g id="菜单栏">
                <g id="通知(3)" transform="translate(676.000000, 66.000000)">
                    <path d="M28.0047835,30.8560886 L4.00287013,30.8560886 C1.7909591,30.8560886 0,29.1291513 0,26.99631 C0,24.8634686 1.7909591,23.1365314 4.00287013,23.1365314 L4.00287013,15.4317343 C4.00287013,10.8413284 6.78880651,6.88560886 10.806984,5.01107011 C11.342741,2.14760148 13.4628079,0 15.9961732,0 C18.5295384,0 20.6496054,2.14760148 21.1853624,5.01107011 C25.2035398,6.87822878 27.9894762,10.8339483 27.9894762,15.4317343 L27.9894762,25.7121771 C27.2853384,25.7121771 26.6041617,25.4391144 26.106673,24.9594096 C25.6091844,24.4797048 25.3259986,23.8228782 25.3259986,23.1439114 L25.3259986,15.4317343 C25.3259986,11.3505535 22.4941402,7.94833948 18.6290361,6.84132841 C18.6366898,6.70848708 18.6596508,6.57564576 18.6596508,6.43542435 C18.6596508,4.30258303 17.4656781,2.57564576 15.9961732,2.57564576 C14.5266683,2.57564576 13.3326955,4.30258303 13.3326955,6.43542435 C13.3326955,6.57564576 13.3480029,6.70848708 13.3633102,6.84870849 C9.50585984,7.94833948 6.66634776,11.3579336 6.66634776,15.4391144 L6.66634776,23.1512915 C6.66634776,23.8302583 6.38316192,24.4870849 5.88567328,24.9667897 C5.38818464,25.4464945 4.70700789,25.7195572 4.00287013,25.7195572 C3.26811768,25.7195572 2.67113131,26.295203 2.67113131,27.00369 C2.67113131,27.7121771 3.26811768,28.2878229 4.00287013,28.2878229 L27.9971299,28.2878229 C28.7318823,28.2878229 29.3288687,27.7121771 29.3288687,27.00369 C29.3288687,26.295203 28.7318823,25.7195572 27.9971299,25.7195572 L27.9971299,23.1512915 C30.2090409,23.1512915 32,24.8782288 32,27.0110701 C32,29.1291513 30.2090409,30.8560886 28.0047835,30.8560886 Z M16.0038268,33.4243542 C17.4809854,33.4243542 18.7591485,32.900369 19.447979,32.1402214 L22.4329108,32.1402214 C21.6905047,34.3542435 19.1035637,36 16.0038268,36 C12.9040899,36 10.317149,34.3542435 9.57474288,32.1402214 L12.5596747,32.1402214 C13.2485051,32.9077491 14.5266683,33.4243542 16.0038268,33.4243542 Z" id="inform_black"></path>
                </g>
            </g>
        </g>
    </g>
</svg>