<?xml version="1.0" encoding="UTF-8"?>
<svg width="36px" height="32px" viewBox="0 0 36 32" version="1.1" xmlns="http://www.w3.org/2000/svg" xmlns:xlink="http://www.w3.org/1999/xlink">
    <!-- Generator: Sketch 48.1 (47250) - http://www.bohemiancoding.com/sketch -->
    <title>service_black</title>
    <desc>Created with Sketch.</desc>
    <defs></defs>
    <g id="首页-向上滑动2" stroke="none" stroke-width="1" fill="none" fill-rule="evenodd" transform="translate(-39.000000, -68.000000)">
        <g id="导航" fill="#31374F" fill-rule="nonzero">
            <g id="菜单栏">
                <g id="service_black" transform="translate(39.000000, 68.000000)">
                    <path d="M21.9922179,28.4221828 C21.858669,30.0878143 20.4650168,31.3715454 18.7904391,31.3714286 L16.2190106,31.3714286 C14.4446385,31.3714286 13.0062257,29.9361286 13.0062257,28.1655964 C13.0062257,26.3950642 14.4446385,24.9597643 16.2190106,24.9597643 L18.7904391,24.9597643 C19.7209561,24.9597643 20.561423,25.355127 21.1477487,25.9881066 C26.4727071,24.7181538 30.4188994,20.0277149 30.4188994,14.4467116 C30.4188994,7.8892823 24.9758755,2.56586377 18.2461367,2.56586377 C11.5183991,2.56586377 6.07537521,7.8892823 6.07537521,14.4467116 C6.07537521,16.1000464 6.42156754,17.7034616 7.08193441,19.1850732 C7.30961644,19.6957193 7.17950389,20.2947016 6.76036286,20.6654505 C6.34122184,21.0361994 5.72966833,21.0932537 5.24891606,20.8064595 C5.08270956,20.8236203 4.91573198,20.8322843 4.74863813,20.8324177 C2.12718177,20.8324177 0,18.749775 0,16.185908 C0,13.9435227 1.62490272,12.0725388 3.78410228,11.6352437 C5.1188438,4.99993999 11.0901612,0 18.2461367,0 C25.3780989,0 31.3334074,4.96399793 32.6941634,11.5673532 C34.6112285,12.1663875 36,13.9235549 36,15.994217 C36,18.4542513 34.0449138,20.4670067 31.5735409,20.6307428 C29.6805688,24.5051989 26.1772116,27.3540954 21.9922179,28.4221828 Z M10.1856587,17.9091301 C9.95187711,17.514987 9.9465829,17.0263326 10.1717704,16.6272384 C10.3969578,16.2281442 10.8184156,15.9792421 11.2773846,15.974291 C11.7363536,15.9693399 12.1631056,16.2090921 12.3968872,16.6032352 C12.5669817,16.8887749 12.9912173,17.3939606 13.6856031,17.9151204 C14.8722624,18.8056848 16.3811006,19.3408222 18.2761534,19.3408222 C20.1692051,19.3408222 21.6780434,18.8056848 22.8667037,17.9151204 C23.5610895,17.3959573 23.9853252,16.8887749 24.1554197,16.6032352 C24.3892012,16.2090921 24.8159532,15.9693399 25.2749222,15.974291 C25.7338913,15.9792421 26.155349,16.2281442 26.3805365,16.6272384 C26.6057239,17.0263326 26.6004297,17.514987 26.3666481,17.9091301 C26.0364647,18.466232 25.4001112,19.2230121 24.4095609,19.9658147 C22.7906615,21.1798576 20.7475264,21.9066859 18.2761534,21.9066859 C15.8047804,21.9066859 13.7596442,21.1798576 12.1407449,19.9658147 C11.1501946,19.2230121 10.513841,18.466232 10.1856587,17.9091301 Z" id="Shape"></path>
                </g>
            </g>
        </g>
    </g>
</svg>