<?xml version="1.0" encoding="UTF-8"?>
<svg width="32px" height="28px" viewBox="0 0 32 28" version="1.1" xmlns="http://www.w3.org/2000/svg" xmlns:xlink="http://www.w3.org/1999/xlink">
    <!-- Generator: Sketch 48.2 (47327) - http://www.bohemiancoding.com/sketch -->
    <title>拍摄</title>
    <desc>Created with Sketch.</desc>
    <defs></defs>
    <g id="头像选择" stroke="none" stroke-width="1" fill="none" fill-rule="evenodd" transform="translate(-317.000000, -1162.000000)">
        <g id="拍摄" transform="translate(317.000000, 1162.000000)" fill="#6F7281" fill-rule="nonzero">
            <path d="M29.1418564,28 L2.80210156,28 C1.28896671,28 0,26.768 0,25.2 L0,6.32800002 C0,4.81600002 1.2329247,3.52800003 2.80210156,3.528 L8.68651487,3.528 L10.4238179,0.72800001 C10.4238179,0.336 11.4325744,0 11.8248687,0 L20.1751313,0 C20.5674256,0 21.5761821,0.336 21.5761821,0.72800001 L23.3134851,3.528 L29.1978984,3.528 C30.7110333,3.528 32,4.81599999 32,6.32800002 L32,25.2 C31.943958,26.712 30.7110333,28 29.1418564,28 Z M15.971979,6.32800002 C10.9281961,6.27200001 6.83712783,10.304 6.78108582,15.344 C6.72504381,20.384 10.76007,24.472 15.8038529,24.528 C20.8476357,24.584 24.938704,20.552 24.994746,15.512 L24.994746,15.456 C24.994746,10.416 20.9597198,6.32799998 15.971979,6.32800002 Z M15.971979,21.728 C12.497373,21.784 9.63922943,18.984 9.63922943,15.456 C9.58318739,11.984 12.385289,9.128 15.9159369,9.128 C19.3905429,9.07199999 22.2486865,11.872 22.2486865,15.4 L22.2486865,15.456 C22.2486865,18.872 19.446585,21.672 15.971979,21.728 C15.971979,21.672 15.971979,21.672 15.971979,21.728 Z" id="Shape"></path>
        </g>
    </g>
</svg>