<?xml version="1.0" standalone="no"?><!DOCTYPE svg PUBLIC "-//W3C//DTD SVG 1.1//EN" "http://www.w3.org/Graphics/SVG/1.1/DTD/svg11.dtd"><svg t="1528856785950" class="icon" style="" viewBox="0 0 1024 1024" version="1.1" xmlns="http://www.w3.org/2000/svg" p-id="2332" xmlns:xlink="http://www.w3.org/1999/xlink" width="200" height="200"><defs><style type="text/css"></style></defs><path d="M640 479.968h-256a32 32 0 0 1 0-64h256a32 32 0 0 1 0 64m0 160h-256a32 32 0 0 1 0-64h256a32 32 0 0 1 0 64M800.256 128H223.744A64 64 0 0 0 160 192.064v639.84A64 64 0 0 0 223.744 896h576.512A64 64 0 0 0 864 831.904V192.064A64 64 0 0 0 800.256 128" p-id="2333"></path></svg>