<?xml version="1.0" encoding="UTF-8"?>
<svg width="36px" height="35px" viewBox="0 0 36 35" version="1.1" xmlns="http://www.w3.org/2000/svg" xmlns:xlink="http://www.w3.org/1999/xlink">
    <!-- Generator: Sketch 48.2 (47327) - http://www.bohemiancoding.com/sketch -->
    <title>设置-点击</title>
    <desc>Created with Sketch.</desc>
    <defs></defs>
    <g id="我的" stroke="none" stroke-width="1" fill="none" fill-rule="evenodd" transform="translate(-674.000000, -68.000000)" opacity="0.5">
        <g id="navigation" fill="#FFFFFF">
            <g id="菜单栏">
                <g id="设置-点击" transform="translate(674.000000, 67.000000)">
                    <g id="set_press">
                        <rect id="Rectangle-11" opacity="0" x="0" y="0" width="36" height="36"></rect>
                        <g opacity="0.5" transform="translate(0.000000, 1.000000)" fill-rule="nonzero" id="Shape">
                            <path d="M18.0428571,24 C14.18867,24 11.0571429,20.8684729 11.0571429,17.0142857 C11.0571429,13.1600985 14.18867,10.0285714 18.0428571,10.0285714 C21.8970443,10.0285714 25.0285714,13.1600985 25.0285714,17.0142857 C25.0285714,20.8684729 21.8970443,24 18.0428571,24 Z M18.0428571,12.7987685 C15.7544335,12.7987685 13.8273399,14.7258621 13.8273399,17.0142857 C13.8273399,19.3027094 15.7544335,21.229803 18.0428571,21.229803 C20.3312808,21.229803 22.2583744,19.3027094 22.2583744,17.0142857 C22.2583744,14.7258621 20.3312808,12.7987685 18.0428571,12.7987685 Z"></path>
                            <path d="M12.8829431,34.1142857 C12.5217391,34.1142857 12.1605351,33.9939671 11.7993311,33.8736484 C9.99331104,33.1517365 8.30769231,32.1891873 6.74247492,30.9860008 C5.65886288,30.0234516 5.29765886,28.4593091 5.89966555,27.1358039 C6.26086957,26.1732547 6.26086957,25.0903869 5.77926421,24.2481563 C5.29765886,23.4059258 4.33444816,22.8043325 3.37123746,22.6840138 C1.80602007,22.5636952 0.722408027,21.4808273 0.481605351,20.0370035 C0.120401338,19.0744543 0,17.9915865 0,17.0290372 C0,16.066488 0.120401338,15.1039388 0.240802676,14.1413896 C0.481605351,12.6975658 1.68561873,11.6146979 3.13043478,11.4943793 C4.21404682,11.3740606 5.05685619,10.7724674 5.53846154,9.93023682 C6.02006689,9.08800626 6.14046823,8.0051384 5.65886288,7.04258919 C5.05685619,5.59876538 5.4180602,4.03462291 6.62207358,3.0720737 C8.18729097,1.86888719 9.8729097,0.906337979 11.6789298,0.184426072 C13.0033445,-0.296848533 14.5685619,0.184426072 15.5317726,1.38761258 C16.1337793,2.22984314 17.09699,2.71111775 18.0602007,2.71111775 C19.1438127,2.71111775 20.1070234,2.22984314 20.7090301,1.38761258 C21.5518395,0.184426072 23.1170569,-0.296848533 24.4414716,0.184426072 C26.2474916,0.906337979 27.9331104,1.86888719 29.4983278,3.0720737 C30.5819398,4.03462291 30.9431438,5.59876538 30.3411371,6.92227054 C29.9799331,7.88481975 29.9799331,8.96768761 30.4615385,9.80991817 C30.9431438,10.6521487 31.9063545,11.253742 32.8695652,11.3740606 C34.4347826,11.4943793 35.5183946,12.5772471 35.7591973,14.021071 C35.8795987,14.9836202 36,16.066488 36,17.0290372 C36,17.9915865 35.8795987,18.9541357 35.7591973,19.9166849 C35.5183946,21.3605087 34.3143813,22.4433765 32.8695652,22.5636952 C31.7859532,22.6840138 30.9431438,23.2856071 30.4615385,24.1278377 C29.9799331,24.9700682 29.8595318,26.0529361 30.3411371,27.0154853 C30.9431438,28.3389905 30.5819398,30.0234516 29.4983278,30.8656821 C28.0535117,32.0688686 26.2474916,33.0314179 24.4414716,33.7533298 C23.1170569,34.2346044 21.5518395,33.7533298 20.5886288,32.5501432 C19.9866221,31.7079127 19.0234114,31.2266381 18.0602007,31.2266381 C16.9765886,31.2266381 16.0133779,31.7079127 15.4113712,32.5501432 C14.9297659,33.6330111 13.8461538,34.1142857 12.8829431,34.1142857 Z M12.7625418,2.71111775 L12.6421405,2.71111775 C11.0769231,3.43302965 9.63210702,4.15494156 8.30769231,5.23780942 C8.18729097,5.35812807 8.18729097,5.71908403 8.30769231,5.83940268 C9.15050167,7.64418245 9.03010033,9.68959952 8.06688963,11.253742 C7.10367893,12.9382031 5.4180602,14.021071 3.4916388,14.2617083 C3.25083612,14.2617083 3.01003344,14.3820269 3.01003344,14.6226642 C2.88963211,15.4648948 2.76923077,16.1868067 2.76923077,17.0290372 C2.76923077,17.8712678 2.88963211,18.7134984 3.01003344,19.5557289 C3.01003344,19.7963662 3.25083612,19.9166849 3.4916388,19.9166849 C5.4180602,20.1573222 7.10367893,21.24019 8.06688963,22.9246512 C9.03010033,24.6091123 9.15050167,26.5342107 8.30769231,28.3389905 C8.18729097,28.5796278 8.18729097,28.8202651 8.42809365,28.9405837 C9.75250836,30.0234516 11.1973244,30.7453635 12.7625418,31.3469567 C13.0033445,31.4672754 13.2441472,31.2266381 13.3645485,31.1063194 C14.4481605,29.542177 16.2541806,28.5796278 18.180602,28.5796278 C20.1070234,28.5796278 21.9130435,29.4218583 22.9966555,30.9860008 C23.1170569,31.1063194 23.3578595,31.3469567 23.5986622,31.2266381 C25.1638796,30.6250448 26.6086957,29.7828143 27.812709,28.6999464 C27.9331104,28.5796278 27.9331104,28.3389905 27.9331104,28.0983532 C27.090301,26.2935734 27.2107023,24.2481563 28.173913,22.6840138 C29.1371237,20.9995527 30.8227425,19.9166849 32.7491639,19.6760476 C32.9899666,19.6760476 33.2307692,19.5557289 33.2307692,19.3150916 C33.3511706,18.4728611 33.4715719,17.7509491 33.4715719,16.9087186 C33.4715719,16.066488 33.3511706,15.2242575 33.2307692,14.3820269 C33.2307692,14.1413896 32.9899666,14.021071 32.7491639,14.021071 C30.8227425,13.7804337 29.1371237,12.6975658 28.173913,11.0131047 C27.2107023,9.32864356 27.090301,7.40354514 27.9331104,5.59876538 C28.0535117,5.35812807 28.0535117,5.11749077 27.812709,4.99717212 C26.4882943,3.91430426 25.0434783,3.19239235 23.4782609,2.5907991 C23.2374582,2.47048045 22.9966555,2.71111775 22.8762542,2.8314364 C21.7926421,4.39557886 19.9866221,5.35812807 18.0602007,5.35812807 C16.1337793,5.35812807 14.3277592,4.51589752 13.2441472,2.95175505 C13.0033445,2.8314364 12.8829431,2.71111775 12.7625418,2.71111775 Z"></path>
                        </g>
                    </g>
                </g>
            </g>
        </g>
    </g>
</svg>