<?xml version="1.0" encoding="UTF-8"?>
<svg width="70px" height="70px" viewBox="0 0 70 70" version="1.1" xmlns="http://www.w3.org/2000/svg" xmlns:xlink="http://www.w3.org/1999/xlink">
    <!-- Generator: Sketch 48.2 (47327) - http://www.bohemiancoding.com/sketch -->
    <title>我的按下</title>
    <desc>Created with Sketch.</desc>
    <defs>
        <path d="M20,26.6666641 C13.3346667,26.6666641 8,20.663998 8,13.333332 C8,6.00266608 13.3346667,0 20,0 C26.6653333,0 32,6.00266608 32,13.333332 C32,20.663998 26.6653333,26.6666641 20,26.6666641 Z M0,38.6666629 C-1.23848624e-06,36.1896913 0.984610366,33.8143061 2.73696905,32.0636982 C4.48932773,30.3130903 6.86569605,29.3308535 9.34266667,29.3333305 L30.6573333,29.3333305 C35.8146667,29.3333305 40,33.5173301 40,38.6666629 C40.0000012,41.1436345 39.0153896,43.5190197 37.263031,45.2696276 C35.5106723,47.0202355 33.134304,48.0024723 30.6573333,47.9999953 L9.34266667,47.9999953 C4.18533333,47.9999953 0,43.8159957 0,38.6666629 Z M15,37 C13.8954305,37 13,37.8954305 13,39 C13,40.1045695 13.8954305,41 15,41 L25,41 C26.1045695,41 27,40.1045695 27,39 C27,37.8954305 26.1045695,37 25,37 L15,37 Z" id="path-1"></path>
    </defs>
    <g id="我的" stroke="none" stroke-width="1" fill="none" fill-rule="evenodd" transform="translate(-570.000000, -1250.000000)">
        <g id="Group" transform="translate(0.000000, 1236.000000)">
            <g id="我的按下" transform="translate(570.000000, 14.000000)">
                <rect id="Rectangle" fill="#FFFFFF" x="0" y="0" width="70" height="70"></rect>
                <g id="我的(2)" transform="translate(15.000000, 11.000000)" fill-rule="nonzero">
                    <g id="Shape">
                        <use fill="#444653" fill-rule="evenodd" xlink:href="#path-1"></use>
                        <path stroke="#444653" stroke-width="4" d="M20,24.6666641 C25.4857492,24.6666641 30,19.6312315 30,13.333332 C30,7.03543258 25.4857492,2 20,2 C14.5142508,2 10,7.03543258 10,13.333332 C10,19.6312315 14.5142508,24.6666641 20,24.6666641 Z M2,38.6666629 C2,42.7120563 5.29053394,45.9999953 9.34266667,45.9999953 L30.6593333,45.9999963 C32.6055246,46.0019425 34.4726711,45.230185 35.8495244,43.8547074 C37.2263776,42.4792298 38.000001,40.6128558 38,38.6666629 C38,34.6212695 34.7094661,31.3333305 30.6573333,31.3333305 L9.34066667,31.3333295 C7.39447543,31.3313833 5.52732886,32.1031408 4.15047561,33.4786184 C2.7736224,34.854096 1.99999903,36.72047 2,38.6666619 Z M15,35 L25,35 C27.209139,35 29,36.790861 29,39 C29,41.209139 27.209139,43 25,43 L15,43 C12.790861,43 11,41.209139 11,39 C11,36.790861 12.790861,35 15,35 Z"></path>
                    </g>
                </g>
            </g>
        </g>
    </g>
</svg>