<?xml version="1.0" standalone="no"?><!DOCTYPE svg PUBLIC "-//W3C//DTD SVG 1.1//EN" "http://www.w3.org/Graphics/SVG/1.1/DTD/svg11.dtd"><svg t="1528855933747" class="icon" style="" viewBox="0 0 1024 1024" version="1.1" xmlns="http://www.w3.org/2000/svg" p-id="2990" xmlns:xlink="http://www.w3.org/1999/xlink" width="200" height="200"><defs><style type="text/css"></style></defs><path d="M960.211687 366.359427l-82.416759-57.578831L877.794928 88.061742c0-3.38699-2.257993-5.644983-5.644983-5.644983l-109.512679 0c-3.38699 0-5.644983 2.257993-5.644983 5.644983l0 136.6086L526.676957 63.223815c-2.822492-1.693495-6.209482-2.822492-9.031974-2.257993-2.822492 0-6.209482 0.564498-9.031974 2.257993L72.820287 364.101433c-5.644983 3.951488-7.338479 11.289967-3.951488 16.370452l25.966924 37.821389c3.38699 5.080485 11.289967 6.209482 16.93495 2.257993l405.309813-279.99118 403.616318 282.249173c5.644983 3.951488 13.54796 3.38699 16.93495-1.693495l26.531422-37.821389C968.114664 378.213892 965.85667 370.875413 960.211687 366.359427zM151.285557 445.953693l0 256.846748L151.285557 937.067255l0 3.951488c0 6.209482 5.080485 11.289967 11.289967 11.289967L163.70452 952.30871c1.693495 0.564498 2.822492 0.564498 4.515987 0.564498l235.39581-0.564498 16.370452 0c6.209482 0 11.289967-5.080485 11.289967-11.289967l0-10.16097 0 0 0-283.37817 170.478501 0 0 164.269019 0 130.399118c0 6.209482 5.080485 11.289967 11.289967 11.289967l11.289967 0 241.040794 0 5.080485 0c6.209482 0 11.289967-5.080485 11.289967-11.289967l0-1.128997c0-1.128997 0.564498-2.257993 0.564498-3.38699L882.310915 445.953693 521.596472 194.187431 151.285557 445.953693z" p-id="2991"></path></svg>