<?xml version="1.0" encoding="UTF-8"?>
<svg width="32px" height="36px" viewBox="0 0 32 36" version="1.1" xmlns="http://www.w3.org/2000/svg" xmlns:xlink="http://www.w3.org/1999/xlink">
    <!-- Generator: Sketch 48.1 (47250) - http://www.bohemiancoding.com/sketch -->
    <title>inform</title>
    <desc>Created with Sketch.</desc>
    <defs></defs>
    <g id="首页-预览" stroke="none" stroke-width="1" fill="none" fill-rule="evenodd" transform="translate(-676.000000, -66.000000)">
        <g id="导航" transform="translate(-1.000000, -1.000000)" fill="#FFFFFF" fill-rule="nonzero">
            <g id="菜单栏">
                <g id="通知(3)" transform="translate(677.000000, 59.000000)">
                    <path d="M28.0047835,38.8560886 L4.00287013,38.8560886 C1.7909591,38.8560886 0,37.1291513 0,34.99631 C0,32.8634686 1.7909591,31.1365314 4.00287013,31.1365314 L4.00287013,23.4317343 C4.00287013,18.8413284 6.78880651,14.8856089 10.806984,13.0110701 C11.342741,10.1476015 13.4628079,8 15.9961732,8 C18.5295384,8 20.6496054,10.1476015 21.1853624,13.0110701 C25.2035398,14.8782288 27.9894762,18.8339483 27.9894762,23.4317343 L27.9894762,33.7121771 C27.2853384,33.7121771 26.6041617,33.4391144 26.106673,32.9594096 C25.6091844,32.4797048 25.3259986,31.8228782 25.3259986,31.1439114 L25.3259986,23.4317343 C25.3259986,19.3505535 22.4941402,15.9483395 18.6290361,14.8413284 C18.6366898,14.7084871 18.6596508,14.5756458 18.6596508,14.4354244 C18.6596508,12.302583 17.4656781,10.5756458 15.9961732,10.5756458 C14.5266683,10.5756458 13.3326955,12.302583 13.3326955,14.4354244 C13.3326955,14.5756458 13.3480029,14.7084871 13.3633102,14.8487085 C9.50585984,15.9483395 6.66634776,19.3579336 6.66634776,23.4391144 L6.66634776,31.1512915 C6.66634776,31.8302583 6.38316192,32.4870849 5.88567328,32.9667897 C5.38818464,33.4464945 4.70700789,33.7195572 4.00287013,33.7195572 C3.26811768,33.7195572 2.67113131,34.295203 2.67113131,35.00369 C2.67113131,35.7121771 3.26811768,36.2878229 4.00287013,36.2878229 L27.9971299,36.2878229 C28.7318823,36.2878229 29.3288687,35.7121771 29.3288687,35.00369 C29.3288687,34.295203 28.7318823,33.7195572 27.9971299,33.7195572 L27.9971299,31.1512915 C30.2090409,31.1512915 32,32.8782288 32,35.0110701 C32,37.1291513 30.2090409,38.8560886 28.0047835,38.8560886 Z M16.0038268,41.4243542 C17.4809854,41.4243542 18.7591485,40.900369 19.447979,40.1402214 L22.4329108,40.1402214 C21.6905047,42.3542435 19.1035637,44 16.0038268,44 C12.9040899,44 10.317149,42.3542435 9.57474288,40.1402214 L12.5596747,40.1402214 C13.2485051,40.9077491 14.5266683,41.4243542 16.0038268,41.4243542 Z" id="inform"></path>
                </g>
            </g>
        </g>
    </g>
</svg>