<?xml version="1.0" encoding="UTF-8"?>
<svg width="32px" height="32px" viewBox="0 0 32 32" version="1.1" xmlns="http://www.w3.org/2000/svg" xmlns:xlink="http://www.w3.org/1999/xlink">
    <!-- Generator: Sketch 48.2 (47327) - http://www.bohemiancoding.com/sketch -->
    <title>exit</title>
    <desc>Created with Sketch.</desc>
    <defs></defs>
    <g id="登录" stroke="none" stroke-width="1" fill="none" fill-rule="evenodd" transform="translate(-42.000000, -68.000000)">
        <g id="导航" transform="translate(-11.000000, -7.000000)">
            <g transform="translate(11.000000, 7.000000)" id="关闭">
                <g transform="translate(40.000000, 66.000000)">
                    <g id="exit">
                        <g>
                            <rect id="Rectangle-8" fill="#D8D8D8" opacity="0" x="0" y="0" width="36" height="36"></rect>
                            <path d="M33.5829197,31.5636085 L20.0136747,17.9629327 L33.5089568,4.4363197 C34.0649862,3.87896351 34.0649862,2.97538231 33.5089568,2.41802612 C32.9528916,1.86070583 32.0512958,1.86070583 31.4952664,2.41802612 L17.9999843,15.9446032 L4.50473804,2.41799022 C3.94870864,1.86066993 3.0471129,1.86066993 2.49108349,2.41799022 C1.93505409,2.97531051 1.93501827,3.87892761 2.49108349,4.4362838 L15.9863298,17.9628968 L2.41704892,31.5636085 C1.86098369,32.1210365 1.86098369,33.0246177 2.41704892,33.581938 C2.69506362,33.8606699 3.05946991,34 3.42387619,34 C3.78828248,34 4.15268876,33.860634 4.43070346,33.5819739 L17.9999843,19.9811904 L31.5692652,33.5819739 C31.8473157,33.8606699 32.2116862,34 32.5760925,34 C32.9404988,34 33.304905,33.860634 33.5829197,33.5819739 C34.1390208,33.0246177 34.1390208,32.1210365 33.5829556,31.5636444 L33.5829197,31.5636085 Z" fill="#FFFFFF" fill-rule="nonzero"></path>
                        </g>
                    </g>
                </g>
            </g>
        </g>
    </g>
</svg>