<?xml version="1.0" encoding="UTF-8"?>
<svg width="24px" height="24px" viewBox="0 0 24 24" version="1.1" xmlns="http://www.w3.org/2000/svg" xmlns:xlink="http://www.w3.org/1999/xlink">
    <!-- Generator: Sketch 48.1 (47250) - http://www.bohemiancoding.com/sketch -->
    <title>agree</title>
    <desc>Created with Sketch.</desc>
    <defs></defs>
    <g id="添加银行卡-下一步" stroke="none" stroke-width="1" fill="none" fill-rule="evenodd" transform="translate(-30.000000, -577.000000)">
        <g id="agree" transform="translate(30.000000, 577.000000)">
            <path d="M22.0791219,1 L1.92087812,1 C1.41230397,1 1,1.41232755 1,1.92098794 L1,22.0790121 C1,22.5876725 1.41230397,23 1.92087812,23 L22.0791219,23 C22.587696,23 23,22.5876725 23,22.0790121 L23.0000003,1.92033005 C22.9996371,1.41192661 22.5874395,0.99999987 22.0791221,1 Z" id="Path" stroke="#D1AD71" stroke-width="2"></path>
            <path d="M15.9556369,11.3132468 C13.8852047,14.3593848 11.9862794,17.7513007 11.0615138,19.4596078 C10.9246935,19.7121405 10.673196,19.8819563 10.3878413,19.9144843 C10.1024866,19.9470122 9.81922632,19.838154 9.62908758,19.6228918 L4.30139492,13.6101995 C4.00720035,13.2792221 4.01016011,12.7795867 4.3082552,12.4521182 L4.89549508,11.805843 C5.05417695,11.63148 5.27656485,11.5286202 5.51218058,11.5206108 C5.7477963,11.5126015 5.97665509,11.6001221 6.14680997,11.7633068 L9.09672993,14.5912755 C9.22203811,14.7111345 9.3942781,14.7688454 9.56649871,14.7486766 C9.73871931,14.7285079 9.89296664,14.6325621 9.98719415,14.4869933 C10.7006632,13.3783088 12.3649668,10.9194443 14.4120741,8.74323938 C16.0561918,7.032777 17.8200912,5.44164602 19.6903727,3.98193357 C19.8526484,3.85488911 20.0672527,3.81633336 20.2635986,3.87894794 C20.4599445,3.94156252 20.6126144,4.09724176 20.6713926,4.29478017 L20.8236908,4.80246984 C20.8861812,5.01214572 20.8340992,5.23923632 20.6864853,5.40072037 C18.9833141,7.26715285 17.4030446,9.2421444 15.9556369,11.3132468 Z" id="Path" fill="#D1AD71"></path>
        </g>
    </g>
</svg>