<?xml version="1.0" encoding="UTF-8"?>
<svg width="13px" height="24px" viewBox="0 0 13 24" version="1.1" xmlns="http://www.w3.org/2000/svg" xmlns:xlink="http://www.w3.org/1999/xlink">
    <!-- Generator: Sketch 48.2 (47327) - http://www.bohemiancoding.com/sketch -->
    <title>进入</title>
    <desc>Created with Sketch.</desc>
    <defs></defs>
    <g id="我的" stroke="none" stroke-width="1" fill="none" fill-rule="evenodd" transform="translate(-696.000000, -435.000000)">
        <g id="Group-5" transform="translate(0.000000, 398.000000)">
            <g id="Group-2">
                <g id="进入" transform="translate(695.000000, 37.000000)">
                    <rect id="Rectangle-5" fill-opacity="0" fill="#FFFFFF" x="0" y="0" width="14" height="24"></rect>
                    <path d="M2.08277943,24 C2.35929032,24 2.63580121,23.8936225 2.84850189,23.6835268 L13.682943,12.8463151 C14.1056857,12.4234644 14.1056857,11.7399887 13.682943,11.317138 C13.2602004,10.8942873 12.5768995,10.8942873 12.1541569,11.317138 L1.31705696,22.1543497 C0.894314347,22.5772004 0.894314347,23.2606761 1.31705696,23.6835268 C1.52975764,23.8962819 1.80626853,24 2.08277943,24 Z" id="Shape" fill="#6F7281" fill-rule="nonzero"></path>
                    <path d="M12.9169991,13 C13.1935665,13 13.470134,12.8936225 13.6828782,12.6835268 C14.1057073,12.2606761 14.1057073,11.5772004 13.6828782,11.1543497 L2.84622072,0.317138035 C2.42339163,-0.105712678 1.73995091,-0.105712678 1.31712182,0.317138035 C0.894292728,0.739988749 0.894292728,1.42346443 1.31712182,1.84631514 L12.1537793,12.6808674 C12.3638642,12.8936225 12.6404316,13 12.9169991,13 Z" id="Shape" fill="#6F7281" fill-rule="nonzero"></path>
                </g>
            </g>
        </g>
    </g>
</svg>